<svg version="1.1" xmlns="http://www.w3.org/2000/svg" xmlns:xlink="http://www.w3.org/1999/xlink" width="21.84286" height="34.75" viewBox="0,0,21.84286,34.75"><g transform="translate(-229.07857,-162.625)"><g data-paper-data="{&quot;isPaintingLayer&quot;:true}" fill="#ffffff" fill-rule="nonzero" stroke="none" stroke-width="0.5" stroke-linecap="butt" stroke-linejoin="miter" stroke-miterlimit="10" stroke-dasharray="" stroke-dashoffset="0" style="mix-blend-mode: normal"><g><g><g><path d="M235.03571,188.89435l4.34375,-4.34375l4.34375,4.34375l-4.34375,4.34375z"/><path d="M235.11845,180.20685l4.34375,-4.34375l4.34375,4.34375l-4.34375,4.34375z"/></g><g><path d="M242.15119,193.03125l4.34375,-4.34375l4.34375,4.34375l-4.34375,4.34375z"/><path d="M242.23393,184.34375l4.34375,-4.34375l4.34375,4.34375l-4.34375,4.34375z"/></g></g><g><g><path d="M229.07857,175.65625l4.34375,-4.34375l4.34375,4.34375l-4.34375,4.34375z"/><path d="M229.16131,166.96875l4.34375,-4.34375l4.34375,4.34375l-4.34375,4.34375z"/></g><path d="M236.27679,171.10565l4.34375,-4.34375l4.34375,4.34375l-4.34375,4.34375z"/></g></g></g></g></svg>