<svg version="1.1" xmlns="http://www.w3.org/2000/svg" xmlns:xlink="http://www.w3.org/1999/xlink" width="30.87808" height="30.87808" viewBox="0,0,30.87808,30.87808"><g transform="translate(-224.56096,-164.56096)"><g data-paper-data="{&quot;isPaintingLayer&quot;:true}" fill-rule="nonzero" stroke="#000000" stroke-width="1.5" stroke-linejoin="miter" stroke-miterlimit="10" stroke-dasharray="" stroke-dashoffset="0" style="mix-blend-mode: normal"><path d="M225.31096,180c0,-8.11253 6.57651,-14.68904 14.68904,-14.68904c8.11253,0 14.68904,6.57651 14.68904,14.68904c0,8.11253 -6.57651,14.68904 -14.68904,14.68904c-8.11253,0 -14.68904,-6.57651 -14.68904,-14.68904z" fill="#a8c8ff" stroke-linecap="butt"/><path d="M227.85263,180c0,-6.70881 5.43857,-12.14737 12.14737,-12.14737c6.70881,0 12.14737,5.43857 12.14737,12.14737c0,6.70881 -5.43857,12.14737 -12.14737,12.14737c-6.70881,0 -12.14737,-5.43857 -12.14737,-12.14737z" fill="#a8ffb3" stroke-linecap="butt"/><path d="M232.18182,180c0,-4.31786 3.50032,-7.81818 7.81818,-7.81818c4.31786,0 7.81818,3.50032 7.81818,7.81818c0,4.31786 -3.50032,7.81818 -7.81818,7.81818c-4.31786,0 -7.81818,-3.50032 -7.81818,-7.81818z" fill="#ffa9a9" stroke-linecap="butt"/><path d="M240.03125,172.46875l-0.0625,15.0625" fill="none" stroke-linecap="round"/><path d="M235.80689,173.74392l8.38621,12.51216" fill="none" stroke-linecap="round"/><path d="M236.13834,180c0,-2.13274 1.72892,-3.86166 3.86166,-3.86166c2.13274,0 3.86166,1.72892 3.86166,3.86166c0,2.13274 -1.72892,3.86166 -3.86166,3.86166c-2.13274,0 -3.86166,-1.72892 -3.86166,-3.86166z" fill="none" stroke-linecap="butt"/><path d="M231.12786,187.88925l8.41363,-0.05348" fill="none" stroke-linecap="round"/><path d="M248.9823,172.1165l-8.94219,0.05567" fill="none" stroke-linecap="round"/><path d="M227.86791,171.81602l0.00088,8.94236" fill="none" stroke-linecap="round"/><path d="M252.15441,187.49378l-0.00079,-8.03491" fill="none" stroke-linecap="round"/></g></g></svg>