<svg version="1.1" xmlns="http://www.w3.org/2000/svg" xmlns:xlink="http://www.w3.org/1999/xlink" width="21.63335" height="20.80773" viewBox="0,0,21.63335,20.80773"><g transform="translate(-229.18333,-169.59613)"><g data-paper-data="{&quot;isPaintingLayer&quot;:true}" fill-rule="nonzero" stroke="none" stroke-width="0.5" stroke-linecap="butt" stroke-linejoin="miter" stroke-miterlimit="10" stroke-dasharray="" stroke-dashoffset="0" style="mix-blend-mode: normal"><g fill="#9966ff"><g><g><path d="M229.41412,170.35799c0.39961,-0.56295 1.1799,-0.69536 1.74285,-0.29576c0.56295,0.39961 0.69536,1.1799 0.29576,1.74285c-0.39961,0.56295 -1.1799,0.69536 -1.74285,0.29576c-0.56295,-0.39961 -0.69536,-1.1799 -0.29576,-1.74285z"/><path d="M231.98196,186.24465c-1.23238,0.20913 -1.44151,-1.02325 -1.44151,-1.02325c0,0 -0.58219,-7.45971 -0.54489,-10.63177c0,0 0.0147,-1.24991 1.26461,-1.23521c1.24991,0.0147 1.23521,1.26461 1.23521,1.26461c-0.03688,3.13609 0.50983,10.18411 0.50983,10.18411c0,0 0.20913,1.23238 -1.02325,1.44151z"/></g><g><path d="M230.97812,190.11187c-0.5291,-0.44343 -0.59857,-1.23184 -0.15513,-1.76095c0.44343,-0.5291 1.23184,-0.59857 1.76095,-0.15513c0.5291,0.44343 0.59857,1.23184 0.15513,1.76095c-0.44343,0.5291 -1.23184,0.59857 -1.76095,0.15513z"/><path d="M247.01947,188.82548c0.1097,1.24518 -1.13548,1.35487 -1.13548,1.35487c0,0 -7.48238,-0.01752 -10.64124,-0.30891c0,0 -1.24472,-0.11482 -1.12989,-1.35953c0.11482,-1.24472 1.35954,-1.1299 1.35954,-1.1299c3.12305,0.28809 10.19221,0.30799 10.19221,0.30799c0,0 1.24518,-0.1097 1.35487,1.13548z"/></g></g><g><g><path d="M250.60231,189.58228c-0.38648,0.57203 -1.16351,0.72245 -1.73555,0.33597c-0.57203,-0.38648 -0.72245,-1.16351 -0.33597,-1.73555c0.38648,-0.57203 1.16351,-0.72245 1.73555,-0.33597c0.57203,0.38648 0.72245,1.16351 0.33597,1.73555z"/><path d="M247.66787,173.75922c1.22721,-0.23757 1.46478,0.98965 1.46478,0.98965c0,0 0.7545,7.44426 0.79055,10.61633c0,0 0.01421,1.24993 -1.23571,1.26413c-1.24992,0.0142 -1.26413,-1.23571 -1.26413,-1.23571c-0.03564,-3.13611 -0.74514,-10.1696 -0.74514,-10.1696c0,0 -0.23757,-1.22721 0.98965,-1.46478z"/></g><g><path d="M248.58204,169.86983c0.53922,0.43108 0.62689,1.21766 0.1958,1.75689c-0.43108,0.53922 -1.21766,0.62689 -1.75689,0.1958c-0.53922,-0.43108 -0.62689,-1.21766 -0.19581,-1.75689c0.43108,-0.53922 1.21767,-0.62688 1.75689,-0.1958z"/><path d="M232.57471,171.52673c-0.13846,-1.24231 1.10386,-1.38075 1.10386,-1.38075c0,0 7.48078,-0.15548 10.64553,0.06281c0,0 1.24705,0.08601 1.16103,1.33305c-0.08601,1.24703 -1.33305,1.16103 -1.33305,1.16103c-3.12888,-0.21581 -10.19661,-0.07226 -10.19661,-0.07226c0,0 -1.24231,0.13846 -1.38075,-1.10386z"/></g></g></g><path d="M234.81648,176.18097c0,-0.69036 0.55964,-1.25 1.25,-1.25c0.69036,0 1.25,0.55964 1.25,1.25c0,0.69036 -0.55964,1.25 -1.25,1.25c-0.69036,0 -1.25,-0.55964 -1.25,-1.25z" fill="#fdffee"/><path d="M240.31648,176.43097c0,-0.69036 0.55964,-1.25 1.25,-1.25c0.69036,0 1.25,0.55964 1.25,1.25c0,0.69036 -0.55964,1.25 -1.25,1.25c-0.69036,0 -1.25,-0.55964 -1.25,-1.25z" fill="#fdffee"/><path d="M242.3268,180.48309c0.08626,-0.06177 0.16648,-0.1212 0.23968,-0.17712zM242.25656,180.53296c0.0218,-0.0624 0.42753,-1.17207 1.5802,-0.78784c1.18585,0.39528 0.79057,1.58114 0.79057,1.58114l-0.56085,0.97972c-2.57354,1.90267 -5.93797,3.08852 -8.25,0.375c0,0 -0.75,-1 0.25,-1.75c1,-0.75 1.75,0.25 1.75,0.25c0.81565,1.50762 3.19108,0.23131 4.44008,-0.64801z" fill="#fdffee"/></g></g></svg>