<svg version="1.1" xmlns="http://www.w3.org/2000/svg" xmlns:xlink="http://www.w3.org/1999/xlink" width="33.04286" height="52.56818" viewBox="0,0,33.04286,52.56818"><defs><linearGradient x1="239.06128" y1="186.88394" x2="239.06128" y2="200.02598" gradientUnits="userSpaceOnUse" id="color-1"><stop offset="0" stop-color="#ffd782"/><stop offset="1" stop-color="#af865b"/></linearGradient><linearGradient x1="239.18644" y1="173.74189" x2="239.18644" y2="186.88394" gradientUnits="userSpaceOnUse" id="color-2"><stop offset="0" stop-color="#ffd782"/><stop offset="1" stop-color="#af865b"/></linearGradient><linearGradient x1="249.82524" y1="193.14204" x2="249.82524" y2="206.28409" gradientUnits="userSpaceOnUse" id="color-3"><stop offset="0" stop-color="#ffd782"/><stop offset="1" stop-color="#af865b"/></linearGradient><linearGradient x1="249.95041" y1="180" x2="249.95041" y2="193.14204" gradientUnits="userSpaceOnUse" id="color-4"><stop offset="0" stop-color="#ffd782"/><stop offset="1" stop-color="#af865b"/></linearGradient><linearGradient x1="230.04959" y1="166.85796" x2="230.04959" y2="180" gradientUnits="userSpaceOnUse" id="color-5"><stop offset="0" stop-color="#ffd782"/><stop offset="1" stop-color="#af865b"/></linearGradient><linearGradient x1="230.17476" y1="153.71591" x2="230.17476" y2="166.85796" gradientUnits="userSpaceOnUse" id="color-6"><stop offset="0" stop-color="#ffd782"/><stop offset="1" stop-color="#af865b"/></linearGradient><linearGradient x1="240.93872" y1="159.97402" x2="240.93872" y2="173.11606" gradientUnits="userSpaceOnUse" id="color-7"><stop offset="0" stop-color="#ffd782"/><stop offset="1" stop-color="#af865b"/></linearGradient></defs><g transform="translate(-223.47857,-153.71591)"><g data-paper-data="{&quot;isPaintingLayer&quot;:true}" fill-rule="nonzero" stroke="none" stroke-width="0.5" stroke-linecap="butt" stroke-linejoin="miter" stroke-miterlimit="10" stroke-dasharray="" stroke-dashoffset="0" style="mix-blend-mode: normal"><g><g><g><path d="M232.49025,193.45496l6.57102,-6.57102l6.57102,6.57102l-6.57102,6.57102z" fill="url(#color-1)"/><path d="M232.61542,180.31291l6.57102,-6.57102l6.57102,6.57102l-6.57102,6.57102z" fill="url(#color-2)"/></g><g><path d="M243.25422,199.71307l6.57102,-6.57102l6.57102,6.57102l-6.57102,6.57102z" fill="url(#color-3)"/><path d="M243.37939,186.57102l6.57102,-6.57102l6.57102,6.57102l-6.57102,6.57102z" fill="url(#color-4)"/></g></g><g><g><path d="M223.47857,173.42898l6.57102,-6.57102l6.57102,6.57102l-6.57102,6.57102z" fill="url(#color-5)"/><path d="M223.60374,160.28693l6.57102,-6.57102l6.57102,6.57102l-6.57102,6.57102z" fill="url(#color-6)"/></g><path d="M234.3677,166.54504l6.57102,-6.57102l6.57102,6.57102l-6.57102,6.57102z" fill="url(#color-7)"/></g></g></g></g></svg>