<svg version="1.1" xmlns="http://www.w3.org/2000/svg" xmlns:xlink="http://www.w3.org/1999/xlink" width="51.42557" height="51.86386" viewBox="0,0,51.42557,51.86386"><g transform="translate(-207.89403,-164.24629)"><g data-paper-data="{&quot;isPaintingLayer&quot;:true}" fill-rule="nonzero" stroke="none" stroke-width="0.5" stroke-linecap="butt" stroke-linejoin="miter" stroke-miterlimit="10" stroke-dasharray="" stroke-dashoffset="0" style="mix-blend-mode: normal"><g><path d="M257.29673,194.70794c-3.01341,13.47427 -16.37931,21.95447 -29.85358,18.94106c-13.47427,-3.01341 -21.95447,-16.37931 -18.94106,-29.85358c3.01341,-13.47427 16.37931,-21.95447 29.85358,-18.94106c13.47427,3.01341 21.95447,16.37931 18.94106,29.85358zM223.00419,196.18782c-1.34742,-0.30134 -2.68402,0.54668 -2.98536,1.89411c-0.30134,1.34742 0.54668,2.68402 1.89411,2.98536c1.34742,0.30134 2.68402,-0.54668 2.98536,-1.89411c0.30134,-1.34742 -0.54668,-2.68402 -1.89411,-2.98536zM242.87525,179.99138c-1.34742,-0.30134 -2.68402,0.54668 -2.98536,1.89411c-0.30134,1.34742 0.54668,2.68402 1.89411,2.98536c1.34742,0.30134 2.68402,-0.54668 2.98536,-1.89411c0.30134,-1.34742 -0.54668,-2.68402 -1.89411,-2.98536z" fill="#9966ff"/><path d="M257.66979,194.65415c-2.74816,13.53086 -15.94492,22.27196 -29.47578,19.52379c-13.53086,-2.74816 -22.27196,-15.94492 -19.52379,-29.47578c2.74816,-13.53086 15.94492,-22.27196 29.47578,-19.52379c13.53086,2.74816 22.27196,15.94492 19.52379,29.47578zM223.41293,196.80733c-1.35308,-0.27482 -2.67276,0.5993 -2.94758,1.95238c-0.27482,1.35308 0.5993,2.67276 1.95238,2.94758c1.35308,0.27482 2.67276,-0.5993 2.94758,-1.95238c0.27482,-1.35308 -0.5993,-2.67276 -1.95238,-2.94758zM242.96202,180.2237c-1.35308,-0.27482 -2.67276,0.5993 -2.94758,1.95238c-0.27482,1.35308 0.5993,2.67276 1.95238,2.94758c1.35308,0.27482 2.67276,-0.5993 2.94758,-1.95238c0.27482,-1.35308 -0.5993,-2.67276 -1.95238,-2.94758z" fill="#66d3ff"/><path d="M257.88625,194.99534c-2.74816,13.53086 -15.94492,22.27195 -29.47578,19.52379c-13.53086,-2.74816 -22.27195,-15.94492 -19.52379,-29.47578c2.74816,-13.53086 15.94492,-22.27195 29.47578,-19.52379c13.53086,2.74816 22.27195,15.94492 19.52379,29.47578zM223.6294,197.14851c-1.35309,-0.27482 -2.67276,0.5993 -2.94758,1.95238c-0.27482,1.35309 0.5993,2.67276 1.95238,2.94758c1.35309,0.27482 2.67276,-0.59929 2.94758,-1.95238c0.27482,-1.35309 -0.59929,-2.67276 -1.95238,-2.94758zM243.17849,180.56489c-1.35309,-0.27482 -2.67276,0.59929 -2.94758,1.95238c-0.27482,1.35309 0.5993,2.67276 1.95238,2.94758c1.35309,0.27482 2.67276,-0.5993 2.94758,-1.95238c0.27482,-1.35309 -0.59929,-2.67276 -1.95238,-2.94758z" fill="#ff6d66"/><path d="M258.22497,195.79385c-3.01341,13.47427 -16.37931,21.95447 -29.85358,18.94106c-13.47427,-3.01341 -21.95447,-16.37931 -18.94106,-29.85358c3.01341,-13.47427 16.37931,-21.95447 29.85358,-18.94106c13.47427,3.01341 21.95447,16.37931 18.94106,29.85358zM223.93243,197.27373c-1.34742,-0.30134 -2.68402,0.54668 -2.98536,1.89411c-0.30134,1.34742 0.54668,2.68402 1.89411,2.98536c1.34742,0.30134 2.68402,-0.54668 2.98536,-1.89411c0.30134,-1.34742 -0.54668,-2.68402 -1.89411,-2.98536zM243.80348,181.07729c-1.34742,-0.30134 -2.68402,0.54668 -2.98536,1.89411c-0.30134,1.34742 0.54668,2.68402 1.89411,2.98536c1.34742,0.30134 2.68402,-0.54668 2.98536,-1.89411c0.30134,-1.34742 -0.54668,-2.68402 -1.89411,-2.98536z" fill="#c1ff66"/><path d="M258.59802,195.74006c-2.74816,13.53086 -15.94492,22.27196 -29.47578,19.5238c-13.53086,-2.74816 -22.27196,-15.94492 -19.5238,-29.47578c2.74816,-13.53086 15.94492,-22.27196 29.47578,-19.5238c13.53086,2.74816 22.27196,15.94492 19.5238,29.47578zM224.34116,197.89324c-1.35309,-0.27482 -2.67276,0.59929 -2.94758,1.95238c-0.27482,1.35309 0.59929,2.67276 1.95238,2.94758c1.35309,0.27482 2.67276,-0.5993 2.94758,-1.95238c0.27482,-1.35309 -0.5993,-2.67276 -1.95238,-2.94758zM243.89025,181.30961c-1.35309,-0.27482 -2.67276,0.59929 -2.94758,1.95238c-0.27482,1.35309 0.59929,2.67276 1.95238,2.94758c1.35309,0.27482 2.67276,-0.5993 2.94758,-1.95238c0.27482,-1.35309 -0.5993,-2.67276 -1.95238,-2.94758z" fill="#66d3ff"/><path d="M258.81449,196.08124c-2.74816,13.53086 -15.94492,22.27195 -29.47578,19.52379c-13.53086,-2.74816 -22.27195,-15.94492 -19.52379,-29.47578c2.74816,-13.53086 15.94492,-22.27195 29.47578,-19.52379c13.53086,2.74816 22.27195,15.94492 19.52379,29.47578zM224.55763,198.23442c-1.35309,-0.27482 -2.67276,0.5993 -2.94758,1.95238c-0.27482,1.35309 0.5993,2.67276 1.95238,2.94758c1.35309,0.27482 2.67276,-0.59929 2.94758,-1.95238c0.27482,-1.35309 -0.59929,-2.67276 -1.95238,-2.94758zM244.10672,181.65079c-1.35309,-0.27482 -2.67276,0.59929 -2.94758,1.95238c-0.27482,1.35309 0.5993,2.67276 1.95238,2.94758c1.35309,0.27482 2.67276,-0.5993 2.94758,-1.95238c0.27482,-1.35309 -0.59929,-2.67276 -1.95238,-2.94758z" fill="#ff66a1"/></g></g></g></svg>