<svg version="1.1" xmlns="http://www.w3.org/2000/svg" xmlns:xlink="http://www.w3.org/1999/xlink" width="51.88189" height="63.88137" viewBox="0,0,51.88189,63.88137"><g transform="translate(-213.95144,-154.75)"><g data-paper-data="{&quot;isPaintingLayer&quot;:true}" fill-rule="nonzero" stroke="none" stroke-linecap="butt" stroke-linejoin="miter" stroke-miterlimit="10" stroke-dasharray="" stroke-dashoffset="0" style="mix-blend-mode: normal"><path d="M265.83333,180c0,13.94519 -11.56598,25.25 -25.83333,25.25c-14.26736,0 -25.83333,-11.30481 -25.83333,-25.25c0,-13.94519 11.56598,-25.25 25.83333,-25.25c14.26736,0 25.83333,11.30481 25.83333,25.25z" fill="#ff0000" stroke-width="0"/><path d="M215.08333,176.25c0,-3.77395 11.15557,-6.83333 24.91667,-6.83333c13.7611,0 24.91667,3.05939 24.91667,6.83333c0,3.77395 -11.15557,6.83333 -24.91667,6.83333c-13.7611,0 -24.91667,-3.05939 -24.91667,-6.83333z" data-paper-data="{&quot;index&quot;:null}" fill="#77f2ff" stroke-width="0"/><text transform="translate(214.20144,194.88137) scale(0.5,0.5)" font-size="40" xml:space="preserve" fill="#4520ff" fill-rule="nonzero" stroke="none" stroke-width="1" stroke-linecap="butt" stroke-linejoin="miter" stroke-miterlimit="10" stroke-dasharray="" stroke-dashoffset="0" font-family="&quot;Microsoft YaHei&quot;, &quot;微软雅黑&quot;, STXihei, &quot;华文细黑&quot;" font-weight="normal" text-anchor="start" style="mix-blend-mode: normal"><tspan x="0" dy="0"> </tspan></text><text transform="translate(218.28477,178.9647) scale(0.5308,0.18581)" font-size="40" xml:space="preserve" fill="#95f4ff" fill-rule="nonzero" stroke="none" stroke-width="1" stroke-linecap="butt" stroke-linejoin="miter" stroke-miterlimit="10" stroke-dasharray="" stroke-dashoffset="0" font-family="&quot;Microsoft YaHei&quot;, &quot;微软雅黑&quot;, STXihei, &quot;华文细黑&quot;" font-weight="normal" text-anchor="start" style="mix-blend-mode: normal"><tspan x="0" dy="0">Iiiiiiii</tspan></text></g></g></svg>