<svg version="1.1" xmlns="http://www.w3.org/2000/svg" xmlns:xlink="http://www.w3.org/1999/xlink" width="71.5" height="71.5" viewBox="0,0,71.5,71.5"><defs><linearGradient x1="245.66667" y1="148.41667" x2="245.66667" y2="179.75" gradientUnits="userSpaceOnUse" id="color-1"><stop offset="0" stop-color="#ffffff"/><stop offset="1" stop-color="#999999"/></linearGradient><linearGradient x1="242" y1="186.08333" x2="242" y2="201.91667" gradientUnits="userSpaceOnUse" id="color-2"><stop offset="0" stop-color="#ffffff"/><stop offset="1" stop-color="#999999"/></linearGradient><linearGradient x1="224.25" y1="171.25" x2="224.25" y2="192.25" gradientUnits="userSpaceOnUse" id="color-3"><stop offset="0" stop-color="#ffffff"/><stop offset="1" stop-color="#999999"/></linearGradient><linearGradient x1="222.08333" y1="154.58333" x2="222.08333" y2="180.91667" gradientUnits="userSpaceOnUse" id="color-4"><stop offset="0" stop-color="#ffffff"/><stop offset="1" stop-color="#999999"/></linearGradient><linearGradient x1="240" y1="157" x2="240" y2="203" gradientUnits="userSpaceOnUse" id="color-5"><stop offset="0" stop-color="#ffffff"/><stop offset="1" stop-color="#999999"/></linearGradient><linearGradient x1="240" y1="146" x2="240" y2="214" gradientUnits="userSpaceOnUse" id="color-6"><stop offset="0" stop-color="#ffffff"/><stop offset="1" stop-color="#999999"/></linearGradient><linearGradient x1="239.79151" y1="169.3875" x2="239.79151" y2="190.6125" gradientTransform="translate(-1507.03237,-1139.52178) scale(6.52297,6.52297)" gradientUnits="userSpaceOnUse" id="color-7"><stop offset="0" stop-color="#ececeb"/><stop offset="1" stop-color="#6e6e6e"/></linearGradient></defs><g transform="translate(-204.25,-144.25)"><g data-paper-data="{&quot;isPaintingLayer&quot;:true}" fill-rule="nonzero" stroke-linejoin="miter" stroke-miterlimit="10" stroke-dasharray="" stroke-dashoffset="0" style="mix-blend-mode: normal"><path d="M263.25,157.25l-6.16667,22.5l-29,-31.33333" fill="none" stroke="url(#color-1)" stroke-width="3.5" stroke-linecap="round"/><path d="M269.25,195.41667l-12.16667,-9.33333l-42.33333,15.83333" fill="none" stroke="url(#color-2)" stroke-width="3.5" stroke-linecap="round"/><path d="M241.25,192.25l-34,-21" fill="none" stroke="url(#color-3)" stroke-width="3.5" stroke-linecap="round"/><path d="M224.91667,180.91667l-5.66667,-26.33333" fill="none" stroke="url(#color-4)" stroke-width="3.5" stroke-linecap="round"/><path d="M217,180c0,-12.70255 10.29745,-23 23,-23c12.70255,0 23,10.29745 23,23c0,12.70255 -10.29745,23 -23,23c-12.70255,0 -23,-10.29745 -23,-23z" fill="url(#color-5)" stroke="none" stroke-width="0" stroke-linecap="butt"/><path d="M206,180c0,-18.77768 15.22232,-34 34,-34c18.77768,0 34,15.22232 34,34c0,18.77768 -15.22232,34 -34,34c-18.77768,0 -34,-15.22232 -34,-34z" fill="none" stroke="url(#color-6)" stroke-width="3.5" stroke-linecap="butt"/><text transform="translate(231.03476,174.69375) scale(0.1533,0.1533)" font-size="40" xml:space="preserve" fill="url(#color-7)" fill-rule="nonzero" stroke="none" stroke-width="1" stroke-linecap="butt" stroke-linejoin="miter" stroke-miterlimit="10" stroke-dasharray="" stroke-dashoffset="0" font-family="&quot;Microsoft YaHei&quot;, &quot;微软雅黑&quot;, STXihei, &quot;华文细黑&quot;" font-weight="normal" text-anchor="start" style="mix-blend-mode: normal"><tspan x="0" dy="0">GAME</tspan><tspan x="0" dy="46.15px">OFF</tspan><tspan x="0" dy="46.15px">'23</tspan></text></g></g></svg>