<svg version="1.1" xmlns="http://www.w3.org/2000/svg" xmlns:xlink="http://www.w3.org/1999/xlink" width="50.41639" height="49.4132" viewBox="0,0,50.41639,49.4132"><g transform="translate(-214.7918,-155.2934)"><g data-paper-data="{&quot;isPaintingLayer&quot;:true}" fill-rule="nonzero" stroke="none" stroke-width="0.5" stroke-linecap="butt" stroke-linejoin="miter" stroke-miterlimit="10" stroke-dasharray="" stroke-dashoffset="0" style="mix-blend-mode: normal"><path d="M228.17378,191.25944l-0.03087,0.02267l-0.07422,-0.01299c-0.05932,0.00421 -0.11922,0.00635 -0.17961,0.00635c-0.38089,0 -0.74189,-0.08518 -1.06498,-0.23753l-0.35725,-0.15878l0.42223,0.56298l0.02757,0.06547l0.05256,0.04778l0.19602,0.29403l0.32496,0.32496l0.09258,0.1543l0.13965,0.11347l0.3934,0.52453l1.52327,1.52327l0.03149,-0.03149l0.03855,-0.06058l0.02754,-0.00551l0.37628,-0.37628l0.2064,-0.3096l-0.07129,-0.57032l-0.45646,-2.73875c-0.40059,0.46944 -0.97188,0.7888 -1.6178,0.86202zM225.12131,166.84104l0.2312,-0.13872l0.18467,-0.19646l2.33333,-1.5l0.21628,-0.0732l0.18374,-0.13555l2.07303,-0.8536l0.18801,-0.50137h-0.07014l-0.11512,0.03837l-0.40069,0.03082l-0.38988,0.09747h-0.76097l-0.11512,0.03837l-0.09774,0.00752l-0.08649,0.04613l-0.40043,0.10011l-0.282,0.141l-0.31276,0.20851l-0.61115,0.45837l-0.20943,0.08818l-0.17253,0.14789l-0.46504,0.23252l-0.34419,0.25814l-0.2077,0.2077l-0.21352,0.12811l-0.1675,0.18425l-0.5,0.33333l-0.14877,0.05313l-0.01659,0.01422l-0.11191,0.11191l-0.05163,0.07744l-0.23666,0.59165l-0.06211,0.086l-0.02301,0.10356l-0.44132,0.88264l-0.20143,0.53714zM244.89974,165.25492l0.03775,0.00829l0.33255,0.54502l0.35196,0.53269l-0.00854,0.0377l0.44493,1.42378l0.01757,-0.00182l0.20651,0.0295l0.04089,-0.00136l0.00864,0.00844l0.3277,0.04681l0.63534,-0.97419l0.06148,-0.05704l0.03254,-0.07729l1.03035,-1.3738l-0.13669,-0.03417l-0.15174,-0.08093l-0.1704,-0.02324l-0.62022,-0.24809l-0.60826,-0.12165l-0.05509,-0.0261h-0.06096l-0.56981,-0.14245l-0.90152,-0.15025l-0.03795,-0.0165l-0.04134,0.00197l-1.18128,-0.23626zM238.05574,188.1088l-0.47619,-0.11905l-0.45103,-0.06808l-0.08304,0.91347l-0.09996,0.28657l0.04091,0.15001l-0.22274,0.37123l-0.14259,0.40877l-0.14143,0.0646l-0.15615,0.26025l-0.16042,0.16042l0.00497,0.03146l0.49176,1.72116l0.72233,0.92872l0.67359,0.58939v-2.36558l0.05187,-0.20749l-0.01621,-0.21326l0.49727,-2.91259zM231.67378,199.51154l-0.11946,0.02655l-0.00233,0.0014l-0.00178,-0.00049l-0.43719,0.09715l-0.55728,0.13932h-0.06966l-0.07009,0.01558l-0.02336,-0.01558h-1.00355l-0.38988,-0.09747l-0.40069,-0.03082l-0.5,-0.16667l-0.33905,-0.21576l-0.37038,-0.15595l-0.66667,-0.5l-0.11347,-0.13965l-0.1543,-0.09258l-2,-2l-0.09258,-0.1543l-0.13965,-0.11347l-0.3934,-0.52453l-0.37437,-0.37437l-0.12811,-0.21352l-0.18425,-0.1675l-0.29484,-0.44226l-0.45837,-0.61115l-0.02757,-0.06547l-0.05256,-0.04778l-0.19602,-0.29403l-1.32496,-1.32496l-0.12811,-0.21352l-0.18425,-0.1675l-0.33333,-0.5l-0.05313,-0.14877l-0.10281,-0.11994l-0.59706,-1.19412l-0.20851,-0.31276l-0.45837,-0.61115l-0.12803,-0.30406l-0.19316,-0.26746l-0.25894,-0.64734l-0.33058,-0.55097l-0.42262,-0.56349l-0.12803,-0.30406l-0.19316,-0.26746l-0.29471,-0.73678l-0.28683,-0.57366l-0.05973,-0.26876l-0.12956,-0.24293l-0.16667,-0.66667v-0.06096l-0.0261,-0.05509l-0.16667,-0.83333l0.01184,-0.24872l-0.06039,-0.24157v-4.16667l0.07464,-0.29857v-0.30776l0.16667,-0.66667l0.04613,-0.08649l0.00752,-0.09774l0.1363,-0.40891l0.40207,-1.60828v-0.19224l0.07464,-0.29857v-0.30776l0.25869,-1.03476v-0.3589l0.07464,-0.29857v-0.30776l0.16667,-0.66667l0.08093,-0.15174l0.02324,-0.1704l0.30605,-0.76512l0.29292,-0.87877l0.31841,-1.11443l0.05132,-0.08896l0.01166,-0.10204l0.5,-1.33333l0.07579,-0.1099l0.02896,-0.13032l0.4535,-0.90699l0.29471,-0.73678l0.15311,-0.212l0.08795,-0.24627l0.33333,-0.5l0.18425,-0.1675l0.12811,-0.21352l0.5,-0.5l0.34461,-0.20676l0.30513,-0.26154l0.19412,-0.09706l0.16452,-0.10968l0.15829,-0.15829l0.1543,-0.09258l0.11347,-0.13965l0.66667,-0.5l0.20943,-0.08818l0.17253,-0.14789l0.46504,-0.23252l0.48633,-0.36475l0.06547,-0.02757l0.04778,-0.05256l0.5,-0.33333l0.14877,-0.05313l0.11994,-0.10281l0.66667,-0.33333l0.26876,-0.05973l0.24293,-0.12956l0.57352,-0.14338l0.40891,-0.1363l0.40069,-0.03082l0.38988,-0.09747h0.29326l0.13734,-0.61803l0.16667,-0.33333l0.83853,-0.97828l0.09857,-0.00548l0.04898,-0.08571l1.25,-0.3125h9.41912l1.42393,-0.28479l0.24872,0.01184l0.24157,-0.06039h0.26097l0.11512,-0.03837l0.15751,-0.01212l0.14277,-0.06763l0.83333,-0.16667l0.24872,0.01184l0.24157,-0.06039h5l0.38988,0.09747l0.40069,0.03082l0.40891,0.1363l0.57352,0.14338l0.3775,0.20133l0.40291,0.1439l0.22143,0.14762l1.18239,0.39413l0.28172,0.17927l0.31447,0.11231l0.5,0.33333l0.1675,0.18425l0.00357,0.00214l0.06609,0.02203l0.28172,0.17927l0.31447,0.11231l0.5,0.33333l0.33018,0.3632l0.26065,0.23695l0.13095,0.08333l0.49257,0.29554l0.04926,0.04926l0.06058,0.03855l0.00551,0.02754l0.21799,0.21799l0.12811,0.21352l0.18425,0.1675l0.33333,0.5l0.11231,0.31447l0.17927,0.28172l0.0608,0.18239l0.14762,0.22143l0.16338,0.45746l0.20795,0.439l0.14682,0.73411l0.30554,1.06937l0.00254,0.07624l0.03412,0.06823l0.30536,1.3741l0.45922,1.37765l0.01212,0.15751l0.06763,0.14277l0.09348,0.46742l0.06454,0.09681l0.15829,0.15829l0.12811,0.21352l0.18425,0.1675l0.33333,0.5l0.11231,0.31447l0.17927,0.28172l0.11048,0.33145l0.58721,1.17442l0.02301,0.10356l0.06211,0.086l0.65535,1.63836l0.48799,1.13865l0.0256,0.15873l0.08035,0.13927l0.31841,1.11443l0.31616,0.94847l0.03082,0.40069l0.09747,0.38988v4l-0.07464,0.29857v0.30776l-0.16667,0.66667l-0.04613,0.08649l-0.00752,0.09774l-0.1363,0.40891l-0.14338,0.57352l-0.04613,0.08649l-0.00752,0.09774l-0.16667,0.5l-0.09661,0.15181l-0.03903,0.17566l-0.25388,0.50775l-0.27715,0.83145l-0.17927,0.28172l-0.02577,0.07215v0.1889l-0.0244,0.09758l0.03788,0.07576l-0.1894,0.53033l-0.13658,0.54632l-0.07354,0.04202l-0.03383,0.09473l-0.14762,0.22143l-0.0608,0.18239l-0.09661,0.15181l-0.03903,0.17566l-0.33333,0.66667l-0.26154,0.30513l-0.20676,0.34461l-0.32496,0.32496l-0.52935,0.79403l-0.18425,0.1675l-0.00346,0.00577l-0.32194,1.12678l-0.21314,0.36945l-0.15633,0.39684l-0.83333,1.16667l-0.23142,0.19713l-0.17594,0.24791l-1.16667,1l-0.03889,0.01944l-0.02635,0.03459l-0.83333,0.66667l-0.15496,0.07102l-0.12054,0.12054l-0.83333,0.5l-0.19366,0.05894l-0.1641,0.11852l-0.41592,0.16637l-0.33438,0.20063l-0.09485,0.16598l-0.31164,0.07791l-0.27545,0.16527l-0.18443,-0.0503l-0.47848,0.11962h-0.05556l-0.44444,0.33333l-0.06547,0.02757l-0.04778,0.05256l-0.5,0.33333l-0.14877,0.05313l-0.11994,0.10281l-0.66667,0.33333l-0.10356,0.02301l-0.086,0.06211l-0.64734,0.25894l-0.66156,0.39694l-0.09378,0.02854l-0.07443,0.06379l-0.58079,0.2904l-1.58434,0.9506l-0.09378,0.02854l-0.07443,0.06379l-2,1l-0.17566,0.03903l-0.15181,0.09661l-1,0.33333l-0.05553,0.00427l-0.04824,0.02783l-1.11443,0.31841l-1.94847,0.64949l-0.15751,0.01212l-0.14277,0.06763l-0.83333,0.16667l-0.24872,-0.01184l-0.24157,0.06039h-0.15299l-0.82009,0.18224l-0.72124,-0.48082l-0.05568,-0.01392l-0.02141,-0.03747l-1.29799,-0.86532l0.0712,-1.28156l-0.0018,-0.00314l0.00218,-0.00382l0.02195,-0.39518l-0.14217,-0.03159l-0.06231,-0.03115l-0.04361,-0.0109l-0.56075,-0.12461l-0.06231,-0.03115l-0.06966,-0.01742l-0.00426,-0.00746l-0.35208,-0.08802l-0.24293,-0.12956l-0.26876,-0.05973l-0.66667,-0.33333l-0.30513,-0.26154l-0.34461,-0.20676l-0.33333,-0.33333l-0.00731,-0.01218l-0.04394,-0.01236l-0.1917,-0.35945zM236.6757,172.27221l-0.02839,-0.05679l-0.62866,-0.91441l-0.05084,-0.04302l-0.11502,0.00575l-0.08936,1.87647l0.12565,-0.03141h0.96274z" fill="#ffb766"/><path d="M241.66681,204.45661c0,-0.25 0.25,-0.25 0.25,-0.25h0.25c0.17843,0.0062 0.35028,-0.03041 0.52686,-0.06558c-2.4059,-0.8635 -5.25639,-0.8829 -7.79215,-1.65108c-3.35742,-1.01887 -6.3817,-1.93089 -9.15632,-4.15047c-2.26006,-1.82539 -4.11084,-4.35974 -6.07515,-6.50855c-2.19567,-2.40962 -2.53074,-6.1871 -3.52353,-9.14461c-0.96893,-2.90679 -1.35472,-5.92544 -1.35472,-8.97972c0,-2.82973 2.25663,-6.62518 3.99213,-8.79661c1.86774,-2.33418 4.48018,-4.52181 6.88287,-6.32839c2.50561,-1.87015 6.0757,-2.61077 9.10377,-3.1241c3.04353,-0.00528 6.08716,-0.00346 9.1307,-0.00042c2.98166,-0.37573 6.06444,-0.07894 8.93624,0.62825c3.5558,0.88895 4.7131,2.2071 6.83978,5.01137c1.51734,2.79766 2.94267,5.35457 3.57829,8.53267c1.03613,2.8291 1.91123,5.91229 1.91123,8.95223c0,3.35036 0.29842,6.31964 -0.70748,9.58764c-1.04318,3.3878 -2.86451,5.8465 -5.33994,8.31182c-2.94656,2.02637 -5.34424,3.46181 -8.63779,4.86326c-2.18781,0.66823 -5.16551,3.19052 -7.31479,3.23728c-0.37263,0 -0.63539,0.11707 -1,0.125h-0.25c0,0 -0.25,0 -0.25,-0.25zM243.1342,204.08198c0.01082,-0.00024 0.02169,-0.00037 0.03261,-0.00037c0.77645,0.02697 1.63462,-0.83871 2.24712,-1.21482c1.46028,-0.8967 3.25571,-1.49361 4.89701,-1.99243c3.24649,-1.37102 5.58314,-2.79785 8.48908,-4.778c2.39673,-2.40749 4.16614,-4.77694 5.18146,-8.07426c0.99024,-3.21462 0.68534,-6.14319 0.68534,-9.44049c0,-2.99897 -0.87921,-6.02501 -1.89265,-8.81719c-0.62661,-3.13307 -2.02574,-5.63969 -3.51783,-8.39791c-2.02146,-2.72294 -3.13093,-3.94381 -6.54008,-4.7961c-2.81402,-0.71545 -5.85922,-0.97709 -8.7839,-0.61429c-3.03974,0.00285 -6.07957,0.00532 -9.1193,-0.00042c-2.92876,0.51023 -6.42696,1.20176 -8.84623,3.0259c-2.37045,1.77301 -4.95334,3.9414 -6.79244,6.24074c-1.66406,2.07803 -3.88256,5.77839 -3.88256,8.48426c0,3.00246 0.37647,5.96384 1.32906,8.8216c0.95284,2.87704 1.28154,6.63031 3.41843,8.96559c1.93527,2.122 3.77054,4.67764 6.01825,6.45525c2.72309,2.17858 5.69304,3.06229 8.98916,4.06245c2.59523,0.78881 5.50789,0.79228 7.95788,1.71103c0,0 0.23408,0.08778 0.1463,0.32186c-0.0051,0.01359 -0.01068,0.02609 -0.01669,0.03759z" fill="#000000"/><path d="M237.03456,175.13862c-1.31286,2.12776 -1.7472,7.40144 -1.84558,9.67427c-0.05981,1.38171 5.73574,2.41504 6.64763,1.35878c1.89969,-2.20044 -1.96851,-0.38266 -1.96851,-3.62363c0,-4.5902 5.89376,-1.99497 7.26298,-0.39754c2.29247,2.67454 -1.04723,8.23315 -3.84631,9.08504c-4.33859,1.32044 -10.78227,-0.50673 -13.01401,-4.69125c-1.28579,-2.41085 1.25278,-9.94143 1.67199,-11.85963c0.61511,-2.81456 2.65471,-5.12971 5.09567,-6.35019c0.34741,-0.18291 0.74312,-0.28642 1.16302,-0.28642c1.38071,0 2.5,1.11929 2.5,2.5c0.18323,0.36651 0.0007,0.81865 -0.36571,1.30253c-0.15159,0.24787 -0.34515,0.46728 -0.5708,0.64835c-0.96677,0.9843 -2.33576,2.00015 -2.73037,2.6397z" fill="#ffa743"/></g></g></svg>