<svg version="1.1" xmlns="http://www.w3.org/2000/svg" xmlns:xlink="http://www.w3.org/1999/xlink" width="71.5" height="71.5" viewBox="0,0,71.5,71.5"><defs><linearGradient x1="240" y1="146" x2="240" y2="214" gradientUnits="userSpaceOnUse" id="color-1"><stop offset="0" stop-color="#000000"/><stop offset="1" stop-color="#646464"/></linearGradient><linearGradient x1="240" y1="157" x2="240" y2="203" gradientUnits="userSpaceOnUse" id="color-2"><stop offset="0" stop-color="#000000"/><stop offset="1" stop-color="#656565"/></linearGradient><linearGradient x1="240" y1="183.33333" x2="240" y2="203" gradientUnits="userSpaceOnUse" id="color-3"><stop offset="0" stop-color="#000000"/><stop offset="1" stop-color="#656565"/></linearGradient><linearGradient x1="240" y1="183.41667" x2="240" y2="189.25" gradientUnits="userSpaceOnUse" id="color-4"><stop offset="0" stop-color="#000000"/><stop offset="1" stop-color="#656565"/></linearGradient></defs><g transform="translate(-204.25,-144.25)"><g data-paper-data="{&quot;isPaintingLayer&quot;:true}" fill-rule="nonzero" stroke-linejoin="miter" stroke-miterlimit="10" stroke-dasharray="" stroke-dashoffset="0" style="mix-blend-mode: normal"><g data-paper-data="{&quot;index&quot;:null}" fill="none" stroke-width="3.5"><path d="M206,180c0,-18.77768 15.22232,-34 34,-34c18.77768,0 34,15.22232 34,34c0,18.77768 -15.22232,34 -34,34c-18.77768,0 -34,-15.22232 -34,-34z" stroke="url(#color-1)" stroke-linecap="butt"/><g stroke-linecap="round"><path d="M244.20708,195.66895l4.43665,16.23814" stroke="#636363"/><path d="M228.17541,195.95469h-16.83334" stroke="#545454"/><path d="M253.34924,170.5998l12.48567,-11.29023" stroke="#151515"/><path d="M206.50874,179.62135h16.83333" stroke="#2c2c2c"/></g></g><g data-paper-data="{&quot;index&quot;:null}" stroke="none" stroke-width="0" stroke-linecap="butt"><path d="M217,180c0,-12.70255 10.29745,-23 23,-23c12.70255,0 23,10.29745 23,23c0,12.70255 -10.29745,23 -23,23c-12.70255,0 -23,-10.29745 -23,-23z" fill="url(#color-2)"/><path d="M230.16667,193.16667c0,-5.4308 4.40253,-9.83333 9.83333,-9.83333c5.4308,0 9.83333,4.40253 9.83333,9.83333c0,5.4308 -4.40253,9.83333 -9.83333,9.83333c-5.4308,0 -9.83333,-4.40253 -9.83333,-9.83333z" fill="url(#color-3)"/><path d="M237.08333,186.33333c0,-1.61083 1.30584,-2.91667 2.91667,-2.91667c1.61083,0 2.91667,1.30583 2.91667,2.91667c0,1.61083 -1.30584,2.91667 -2.91667,2.91667c-1.61083,0 -2.91667,-1.30584 -2.91667,-2.91667z" fill="url(#color-4)"/></g></g></g></svg>