<svg version="1.1" xmlns="http://www.w3.org/2000/svg" xmlns:xlink="http://www.w3.org/1999/xlink" width="30.87859" height="30.87808" viewBox="0,0,30.87859,30.87808"><g transform="translate(-224.56096,-164.56096)"><g data-paper-data="{&quot;isPaintingLayer&quot;:true}" fill-rule="nonzero" stroke-linecap="butt" stroke-linejoin="miter" stroke-miterlimit="10" stroke-dasharray="" stroke-dashoffset="0" style="mix-blend-mode: normal"><path d="M240,165.31096c0.78231,0 1.55033,0.06115 2.29955,0.17894c0.83515,2.2903 1.61085,4.60705 2.63254,6.81632c0.49204,1.06246 0.87324,2.5445 1.33801,3.96606c-0.15482,0.153 -0.39863,0.39257 -0.70743,0.69912c-0.281,-0.41724 -1.33833,-1.34229 -2.48347,-1.9207c-1.18354,-0.59781 -2.45521,-0.84237 -2.70419,-0.84237c-1.4356,0 -2.75815,0.48402 -3.81337,1.29777c-1.36103,-3.15341 -2.7859,-7.65424 -3.16513,-8.63071c1.98521,-1.0008 4.22853,-1.56444 6.6035,-1.56444z" fill="#ffd2a8" stroke="#000000" stroke-width="1.5"/><path d="M237.7518,186.50351c-0.11327,-0.17877 -0.22624,-0.35871 -0.33797,-0.5398c0.14018,0.07556 0.28357,0.14591 0.42992,0.21082c-0.04229,0.11748 -0.07328,0.22741 -0.09195,0.32898z" fill="#ffd2a8" stroke="#000000" stroke-width="1.5"/><path d="M247.2933,192.7534c-1.54549,0.88573 -3.26735,1.49862 -5.09991,1.77299c-0.90449,-2.08695 -1.88645,-4.05226 -3.23189,-6.10968c-0.24916,-0.4105 -0.51605,-0.82794 -0.78778,-1.25222c0.02628,-0.05881 0.02628,-0.11449 0.02628,-0.11449c0,-0.22696 0.03292,-0.45977 0.09367,-0.6966c0.65106,0.22987 1.35159,0.35493 2.08133,0.35493c0.94731,0 1.84539,-0.21075 2.64992,-0.58793c1.12467,1.89889 2.85443,4.72658 4.26838,6.633z" fill="#a8ffb3" stroke="#000000" stroke-width="1.5"/><path d="M248.2873,180.03982c0,0 0.05617,0.04815 0.13359,0.0615c-1.51497,2.25442 -3.44879,4.72195 -4.30449,7.25902c-0.32442,-0.46591 -0.63688,-0.91502 -0.9207,-1.3232c2.03466,-1.03078 3.4293,-3.14192 3.4293,-5.5788c0,-1.11084 -0.2898,-2.15399 -0.79792,-3.05797c0.20608,-0.20407 0.41215,-0.40739 0.61769,-0.60994c0.4626,1.32641 1.02161,2.54575 1.84252,3.24939z" fill="#a8ffb3" stroke="#000000" stroke-width="1.5"/><path d="M240,194.68904c-5.07154,0 -9.54278,-2.57017 -12.18226,-6.47904c1.07219,-0.95024 2.3655,-1.82657 3.11713,-2.42774c1.24095,-0.99276 2.43416,-2.03271 3.59442,-3.10778c0.39853,1.05067 1.07219,1.96595 1.93301,2.65788c0.66162,1.16041 1.42375,2.27663 2.0762,3.35094c1.30338,1.99371 2.25664,3.8988 3.13494,5.91147c-0.5492,0.06228 -1.10759,0.09428 -1.67344,0.09428z" fill="#f9ffa8" stroke="#000000" stroke-width="1.5"/><path d="M225.31096,180c0,-1.51393 0.22903,-2.97436 0.65433,-4.34854c0.66282,0.29701 5.24336,1.94341 8.39693,3.09542c-0.15452,0.5439 -0.23722,1.11802 -0.23722,1.71145c0,0.58694 0.08091,1.15499 0.23218,1.6936c-1.20406,1.12222 -2.44329,2.2068 -3.73465,3.23989c-0.80606,0.645 -2.02148,1.486 -3.06829,2.41379c-1.42127,-2.26139 -2.24328,-4.93751 -2.24328,-7.80562z" fill="#a94c2e" stroke="#000000" stroke-width="1.5"/><path d="M226.12291,175.17177c1.20313,-3.45837 3.66257,-6.32858 6.83187,-8.06417c0.37421,0.96287 1.82112,5.52372 3.21826,8.724c-0.73032,0.66367 -1.30287,1.49788 -1.65473,2.43973c-3.15054,-1.15152 -7.7163,-2.79496 -8.39541,-3.09957z" fill="#ffd6fc" stroke="#000000" stroke-width="1.5"/><path d="M253.14681,173.44073c-1.4894,1.93935 -2.92618,3.93765 -4.26842,5.96893c-0.07164,0.01761 -0.1563,0.06791 -0.17587,0.20499c-0.00344,0.02409 -0.00421,0.04618 -0.00278,0.06642c-0.00492,0.00752 -0.00985,0.01503 -0.01477,0.02255c-0.00547,0.00835 -0.01095,0.0167 -0.01643,0.02506c-0.0259,-0.04282 -0.05584,-0.06848 -0.05584,-0.06848c-0.79181,-0.67869 -1.33467,-1.91008 -1.78727,-3.24471c0.31182,-0.3071 0.62164,-0.61233 0.92757,-0.91555c0.02829,-0.00098 0.247,-0.0161 0.247,-0.24993c0,-0.25 -0.25,-0.25 -0.25,-0.25l-0.27677,0.07323c-0.27011,0.27266 -0.54374,0.54568 -0.81952,0.81929c-0.43909,-1.3764 -0.80614,-2.79931 -1.26791,-3.79641c-0.97776,-2.10808 -1.72796,-4.31638 -2.51998,-6.50573c4.51259,0.89243 8.28208,3.85171 10.28099,7.85035z" fill="#a8c8ff" stroke="#000000" stroke-width="1.5"/><path d="M247.72402,192.49668c-0.37208,-0.4999 -1.9445,-2.74889 -3.36884,-4.79351c0.17206,0.00569 0.23199,-0.17412 0.23199,-0.17412c0.87327,-2.64375 2.99718,-5.2332 4.51603,-7.55143c0.01051,-0.01604 0.02103,-0.03209 0.03155,-0.04814c1.90863,0.28393 3.69951,0.71688 5.50927,1.22912c-0.37398,4.7929 -3.04837,8.93999 -6.92,11.33808z" fill="#cba8ff" stroke="#000000" stroke-width="1.5"/><path d="M254.68904,180c0,0.2175 -0.00473,0.4339 -0.01408,0.6491c-1.72221,-0.48355 -3.43,-0.89476 -5.23714,-1.17854c1.24779,-1.87709 2.57606,-3.72474 3.95046,-5.52267c0.83557,1.8455 1.30077,3.89448 1.30077,6.05211z" fill="#cbffa8" stroke="#000000" stroke-width="1.5"/><path d="M237.29167,186.14237c0,-1.77191 1.43642,-3.20833 3.20833,-3.20833c1.77191,0 3.20833,1.43642 3.20833,3.20833c0,0.10453 -6.41667,0.08839 -6.41667,0z" fill="#000000" stroke="none" stroke-width="0.5"/><path d="M236.95833,178.14237c0,-1.77192 1.43642,-3.20834 3.20834,-3.20834c1.77192,0 3.20834,1.43642 3.20834,3.20834c0,0.10452 -6.41667,0.08838 -6.41667,0z" fill="#000000" stroke="none" stroke-width="0.5"/></g></g></svg>