<svg version="1.1" xmlns="http://www.w3.org/2000/svg" xmlns:xlink="http://www.w3.org/1999/xlink" width="51.66667" height="50.5" viewBox="0,0,51.66667,50.5"><defs><radialGradient cx="253.3681" cy="169.63137" r="11.16667" gradientUnits="userSpaceOnUse" id="color-1"><stop offset="0" stop-color="#9985ff"/><stop offset="1" stop-color="#9985ff" stop-opacity="0"/></radialGradient></defs><g transform="translate(-214.16667,-154.75)"><g data-paper-data="{&quot;isPaintingLayer&quot;:true}" fill-rule="nonzero" stroke="none" stroke-linecap="butt" stroke-linejoin="miter" stroke-miterlimit="10" stroke-dasharray="" stroke-dashoffset="0" style="mix-blend-mode: normal"><path d="M265.83333,180c0,13.94519 -11.56598,25.25 -25.83333,25.25c-14.26736,0 -25.83333,-11.30481 -25.83333,-25.25c0,-13.94519 11.56598,-25.25 25.83333,-25.25c14.26736,0 25.83333,11.30481 25.83333,25.25z" fill="#000000" stroke-width="0"/><path d="M264.91667,180c0,12.28834 -11.15557,22.25 -24.91667,22.25c-13.7611,0 -24.91667,-9.96166 -24.91667,-22.25c0,-12.28834 11.15557,-22.25 24.91667,-22.25c13.7611,0 24.91667,9.96166 24.91667,22.25z" fill="#2900ff" stroke-width="0"/><path d="M264.53477,169.63137c0,6.3973 -4.99949,11.58333 -11.16667,11.58333c-6.16718,0 -11.16667,-5.18603 -11.16667,-11.58333c0,-6.3973 4.99949,-11.58333 11.16667,-11.58333c6.16718,0 11.16667,5.18603 11.16667,11.58333z" fill="url(#color-1)" stroke-width="0"/><text transform="translate(229.03477,190.04803) scale(0.5,0.5)" font-size="40" xml:space="preserve" fill="#4520ff" fill-rule="nonzero" stroke="none" stroke-width="1" stroke-linecap="butt" stroke-linejoin="miter" stroke-miterlimit="10" stroke-dasharray="" stroke-dashoffset="0" font-family="&quot;Microsoft YaHei&quot;, &quot;微软雅黑&quot;, STXihei, &quot;华文细黑&quot;" font-weight="normal" text-anchor="start" style="mix-blend-mode: normal"><tspan x="0" dy="0">H</tspan></text><text transform="translate(214.20144,194.88137) scale(0.5,0.5)" font-size="40" xml:space="preserve" fill="#4520ff" fill-rule="nonzero" stroke="none" stroke-width="1" stroke-linecap="butt" stroke-linejoin="miter" stroke-miterlimit="10" stroke-dasharray="" stroke-dashoffset="0" font-family="&quot;Microsoft YaHei&quot;, &quot;微软雅黑&quot;, STXihei, &quot;华文细黑&quot;" font-weight="normal" text-anchor="start" style="mix-blend-mode: normal"><tspan x="0" dy="0"> </tspan></text></g></g></svg>