<svg version="1.1" xmlns="http://www.w3.org/2000/svg" xmlns:xlink="http://www.w3.org/1999/xlink" width="29.51698" height="30.67216" viewBox="0,0,29.51698,30.67216"><defs><radialGradient cx="240" cy="180" r="10.72305" gradientUnits="userSpaceOnUse" id="color-1"><stop offset="0" stop-color="#000000"/><stop offset="1" stop-color="#ffad00"/></radialGradient><radialGradient cx="240" cy="180" r="7.25" gradientUnits="userSpaceOnUse" id="color-2"><stop offset="0" stop-color="#000000"/><stop offset="1" stop-color="#ffea00"/></radialGradient><radialGradient cx="240" cy="180" r="4.36765" gradientUnits="userSpaceOnUse" id="color-3"><stop offset="0" stop-color="#000000"/><stop offset="1" stop-color="#00ff46"/></radialGradient><radialGradient cx="240" cy="180" r="2.63235" gradientUnits="userSpaceOnUse" id="color-4"><stop offset="0" stop-color="#000000"/><stop offset="1" stop-color="#00e6ff"/></radialGradient><radialGradient cx="240" cy="180" r="15.08608" gradientUnits="userSpaceOnUse" id="color-5"><stop offset="0" stop-color="#000000"/><stop offset="1" stop-color="#ff0000"/></radialGradient></defs><g transform="translate(-225.27083,-164.66392)"><g data-paper-data="{&quot;isPaintingLayer&quot;:true}" fill="none" fill-rule="nonzero" stroke-width="0.5" stroke-linejoin="miter" stroke-miterlimit="10" stroke-dasharray="" stroke-dashoffset="0" style="mix-blend-mode: normal"><path d="M250.29167,180c0,5.92218 -4.60774,10.72305 -10.29167,10.72305c-5.68393,0 -10.29167,-4.80087 -10.29167,-10.72305c0,-5.92218 4.60774,-10.72305 10.29167,-10.72305c5.68393,0 10.29167,4.80087 10.29167,10.72305z" stroke="url(#color-1)" stroke-linecap="butt"/><path d="M246.95834,180c0,4.00406 -3.11535,7.25 -6.95834,7.25c-3.84298,0 -6.95834,-3.24594 -6.95834,-7.25c0,-4.00406 3.11535,-7.25 6.95834,-7.25c3.84298,0 6.95834,3.24594 6.95834,7.25z" stroke="url(#color-2)" stroke-linecap="butt"/><g stroke-linecap="round"><path d="M250.59595,190.19748l-21.04904,-20.53782" stroke="#04ff00"/><g><path d="M248.08062,192.39238l-16.01837,-24.92762" stroke="#006bff"/><g><path d="M225.60504,179.81195l28.93277,0.23324" stroke="#6c00ff"/><path d="M226.66505,185.55316l26.81277,-11.24918" stroke="#00e1ff"/><path d="M253.59515,185.24405l-27.04743,-10.63094" stroke="#ffb900"/><path d="M225.86386,182.74935l28.41514,-5.64155" stroke="#0066ff"/><path d="M227.80466,171.99443l24.53354,15.86829" stroke="#f9ff00"/><path d="M254.34016,182.39695l-28.53745,-4.93676" stroke="#ff0000"/><g><path d="M227.99162,188.164l24.15963,-16.47086" stroke="#00ffa1"/><g><path d="M250.03986,169.08202l-19.93686,21.69311" stroke="#00ff0b"/><g><path d="M232.35271,192.58702l15.43744,-25.3169" stroke="#aeff00"/><g><path d="M240.01728,194.89523l0.10831,-29.93331" stroke="#ff0000"/><path d="M245.56238,193.77536l-10.9819,-27.69356" stroke="#8c00ff"/><path d="M234.8788,193.89799l10.38527,-27.93883" stroke="#ffd300"/><path d="M242.85548,194.61557l-5.56811,-29.374" stroke="#fd90ff"/><path d="M237.62776,194.68026l4.88735,-29.50338" stroke="#ffa000"/></g></g></g></g></g></g></g><path d="M244.19194,180c0,2.41218 -1.8768,4.36765 -4.19194,4.36765c-2.31514,0 -4.19194,-1.95546 -4.19194,-4.36765c0,-2.41218 1.8768,-4.36765 4.19194,-4.36765c2.31514,0 4.19194,1.95546 4.19194,4.36765z" stroke="url(#color-3)" stroke-linecap="butt"/><path d="M242.52646,180c0,1.45381 -1.13114,2.63235 -2.52645,2.63235c-1.39532,0 -2.52645,-1.17854 -2.52645,-2.63235c0,-1.45381 1.13114,-2.63235 2.52645,-2.63235c1.39532,0 2.52645,1.17854 2.52645,2.63235z" stroke="url(#color-4)" stroke-linecap="butt"/><path d="M254.47917,180c0,8.33181 -6.48255,15.08608 -14.47917,15.08608c-7.99662,0 -14.47917,-6.75427 -14.47917,-15.08608c0,-8.33181 6.48255,-15.08608 14.47917,-15.08608c7.99662,0 14.47917,6.75427 14.47917,15.08608z" stroke="url(#color-5)" stroke-linecap="butt"/></g></g></svg>