<svg version="1.1" xmlns="http://www.w3.org/2000/svg" xmlns:xlink="http://www.w3.org/1999/xlink" width="41.52659" height="37.81738" viewBox="0,0,41.52659,37.81738"><g transform="translate(-219.2367,-161.09131)"><g data-paper-data="{&quot;isPaintingLayer&quot;:true}" fill-rule="nonzero" stroke-linecap="butt" stroke-linejoin="miter" stroke-miterlimit="10" stroke-dasharray="" stroke-dashoffset="0" style="mix-blend-mode: normal"><g fill="none" stroke="#000000" stroke-width="2.5"><path d="M243.83357,174.47759c5.32548,9.19574 5.30779,19.16079 -0.03951,22.25754c-5.34731,3.09676 -13.99931,-1.84745 -19.32479,-11.04319c-5.32548,-9.19574 -5.30779,-19.16079 0.03951,-22.25754c5.34731,-3.09676 13.99931,1.84745 19.32479,11.04319z"/><path d="M255.49121,163.26487c5.34731,3.09676 5.365,13.06179 0.03952,22.25753c-5.32548,9.19574 -13.97748,14.13995 -19.32479,11.04319c-5.34731,-3.09676 -5.365,-13.06179 -0.03952,-22.25753c5.32548,-9.19574 13.97749,-14.13995 19.32479,-11.04319z" data-paper-data="{&quot;index&quot;:null}"/></g><g fill="#ff6666" stroke="none" stroke-width="0"><path d="M243.83357,174.47759c5.32548,9.19574 5.30779,19.16079 -0.03951,22.25754c-5.34731,3.09676 -13.99931,-1.84745 -19.32479,-11.04319c-5.32548,-9.19574 -5.30779,-19.16079 0.03951,-22.25754c5.34731,-3.09676 13.99931,1.84745 19.32479,11.04319z"/><path d="M255.49121,163.26487c5.34731,3.09676 5.365,13.06179 0.03952,22.25753c-5.32548,9.19574 -13.97748,14.13995 -19.32479,11.04319c-5.34731,-3.09676 -5.365,-13.06179 -0.03952,-22.25753c5.32548,-9.19574 13.97749,-14.13995 19.32479,-11.04319z" data-paper-data="{&quot;index&quot;:null}"/></g></g></g></svg>