<svg version="1.1" xmlns="http://www.w3.org/2000/svg" xmlns:xlink="http://www.w3.org/1999/xlink" width="71.5" height="71.5" viewBox="0,0,71.5,71.5"><defs><linearGradient x1="224.50158" y1="195.28562" x2="224.50158" y2="201.19043" gradientUnits="userSpaceOnUse" id="color-1"><stop offset="0" stop-color="#630000"/><stop offset="1" stop-color="#000f26"/></linearGradient><linearGradient x1="257.83491" y1="195.57136" x2="257.83491" y2="201.9047" gradientUnits="userSpaceOnUse" id="color-2"><stop offset="0" stop-color="#630000"/><stop offset="1" stop-color="#000f26"/></linearGradient><linearGradient x1="219.58491" y1="158.92624" x2="219.58491" y2="170.21647" gradientUnits="userSpaceOnUse" id="color-3"><stop offset="0" stop-color="#630000"/><stop offset="1" stop-color="#000f26"/></linearGradient><linearGradient x1="257.08491" y1="152.23802" x2="257.08491" y2="179.23802" gradientUnits="userSpaceOnUse" id="color-4"><stop offset="0" stop-color="#630000"/><stop offset="1" stop-color="#000f26"/></linearGradient><linearGradient x1="240" y1="146" x2="240" y2="214" gradientUnits="userSpaceOnUse" id="color-5"><stop offset="0" stop-color="#630000"/><stop offset="1" stop-color="#001028"/></linearGradient><linearGradient x1="240" y1="157" x2="240" y2="203" gradientUnits="userSpaceOnUse" id="color-6"><stop offset="0" stop-color="#630000"/><stop offset="1" stop-color="#000f26"/></linearGradient><linearGradient x1="240" y1="157" x2="240" y2="176.66666" gradientUnits="userSpaceOnUse" id="color-7"><stop offset="0" stop-color="#630000"/><stop offset="1" stop-color="#000f26"/></linearGradient><linearGradient x1="240" y1="170.75" x2="240" y2="176.58334" gradientUnits="userSpaceOnUse" id="color-8"><stop offset="0" stop-color="#630000"/><stop offset="1" stop-color="#000f26"/></linearGradient></defs><g transform="translate(-204.25,-144.25)"><g data-paper-data="{&quot;isPaintingLayer&quot;:true}" fill-rule="nonzero" stroke-linejoin="miter" stroke-miterlimit="10" stroke-dasharray="" stroke-dashoffset="0" style="mix-blend-mode: normal"><g><g data-paper-data="{&quot;index&quot;:null}" fill="none" stroke-width="3.5" stroke-linecap="round"><path d="M214.03325,201.19043l20.93665,-5.90481" stroke="url(#color-1)"/><path d="M264.66825,201.9047l-13.66667,-6.33333" stroke="url(#color-2)"/><path d="M225.82774,170.21647l-12.48567,-11.29023" stroke="url(#color-3)"/><path d="M255.83491,179.23802l2.5,-27" stroke="url(#color-4)"/></g><path d="M240,146c18.77768,0 34,15.22232 34,34c0,18.77768 -15.22232,34 -34,34c-18.77768,0 -34,-15.22232 -34,-34c0,-18.77768 15.22232,-34 34,-34z" fill="none" stroke="url(#color-5)" stroke-width="3.5" stroke-linecap="butt"/><g stroke="none" stroke-width="0" stroke-linecap="butt"><path d="M240,157c12.70255,0 23,10.29745 23,23c0,12.70255 -10.29745,23 -23,23c-12.70255,0 -23,-10.29745 -23,-23c0,-12.70255 10.29745,-23 23,-23z" fill="url(#color-6)"/><path d="M240,157c5.4308,0 9.83333,4.40253 9.83333,9.83333c0,5.4308 -4.40253,9.83333 -9.83333,9.83333c-5.4308,0 -9.83333,-4.40253 -9.83333,-9.83333c0,-5.4308 4.40253,-9.83333 9.83333,-9.83333z" fill="url(#color-7)"/><path d="M240,170.75c1.61083,0 2.91667,1.30584 2.91667,2.91667c0,1.61084 -1.30584,2.91667 -2.91667,2.91667c-1.61083,0 -2.91667,-1.30584 -2.91667,-2.91667c0,-1.61083 1.30584,-2.91667 2.91667,-2.91667z" fill="url(#color-8)"/></g></g></g></g></svg>