<svg version="1.1" xmlns="http://www.w3.org/2000/svg" xmlns:xlink="http://www.w3.org/1999/xlink" width="15.88929" height="15.09112" viewBox="0,0,15.88929,15.09112"><g transform="translate(-231.7703,-172.71099)"><g data-paper-data="{&quot;isPaintingLayer&quot;:true}" fill-rule="nonzero" stroke="none" stroke-width="0.5" stroke-linecap="butt" stroke-linejoin="miter" stroke-miterlimit="10" stroke-dasharray="" stroke-dashoffset="0" style="mix-blend-mode: normal"><path d="M232.62548,185.18809c0,-1.03789 0.63247,-1.92806 1.53301,-2.30612c-0.83945,-0.40318 -1.41899,-1.26133 -1.41899,-2.25484c0,-1.38071 1.11929,-2.5 2.5,-2.5c0.8784,0 1.651,0.45303 2.09688,1.13818c0.23098,-0.82211 0.8718,-1.4727 1.68807,-1.7174c-0.94127,-0.35869 -1.60997,-1.26972 -1.60997,-2.33693c0,-1.38071 1.11929,-2.5 2.5,-2.5c1.38071,0 2.5,1.11929 2.5,2.5c0,1.13079 -0.75075,2.08623 -1.78101,2.39507c0.94127,0.35869 1.60997,1.26972 1.60997,2.33693c0,1.38071 -1.11929,2.5 -2.5,2.5c-0.8784,0 -1.651,-0.45303 -2.09688,-1.13818c-0.20703,0.73686 -0.74331,1.33594 -1.44008,1.62845c0.83945,0.40318 1.41899,1.26133 1.41899,2.25484c0,1.38071 -1.11929,2.5 -2.5,2.5c-1.38071,0 -2.5,-1.11929 -2.5,-2.5z" fill="#a0e6fa"/><path d="M237.64253,185.13108c0,-1.38071 1.11929,-2.5 2.5,-2.5c1.38071,0 2.5,1.11929 2.5,2.5c0,1.38071 -1.11929,2.5 -2.5,2.5c-1.38071,0 -2.5,-1.11929 -2.5,-2.5z" fill="#a000c4"/><path d="M242.65958,185.30211c0,-1.38071 1.11929,-2.5 2.5,-2.5c1.38071,0 2.5,1.11929 2.5,2.5c0,1.38071 -1.11929,2.5 -2.5,2.5c-1.38071,0 -2.5,-1.11929 -2.5,-2.5z" fill="#c4b000"/><path d="M242.60257,176.46526c0,-1.38071 1.11929,-2.5 2.5,-2.5c1.38071,0 2.5,1.11929 2.5,2.5c0,0.53778 -0.1698,1.0359 -0.45872,1.44367c0.32346,0.42136 0.51573,0.9487 0.51573,1.52095c0,1.38071 -1.11929,2.5 -2.5,2.5c-1.38071,0 -2.5,-1.11929 -2.5,-2.5c0,-0.53778 0.1698,-1.0359 0.45872,-1.44367c-0.32346,-0.42136 -0.51573,-0.9487 -0.51573,-1.52095z" fill="#faeca0"/><path d="M231.7703,175.49605c0,-1.38071 1.11929,-2.5 2.5,-2.5c1.38071,0 2.5,1.11929 2.5,2.5c0,1.38071 -1.11929,2.5 -2.5,2.5c-1.38071,0 -2.5,-1.11929 -2.5,-2.5z" fill="#973c55"/></g></g></svg>