<svg version="1.1" xmlns="http://www.w3.org/2000/svg" xmlns:xlink="http://www.w3.org/1999/xlink" width="30.07556" height="22.37063" viewBox="0,0,30.07556,22.37063"><defs><linearGradient x1="240" y1="173.00001" x2="240" y2="187.00001" gradientUnits="userSpaceOnUse" id="color-1"><stop offset="0" stop-color="#191a18" stop-opacity="0"/><stop offset="1" stop-color="#191a18"/></linearGradient><linearGradient x1="240" y1="173.00001" x2="240" y2="187.00001" gradientUnits="userSpaceOnUse" id="color-2"><stop offset="0" stop-color="#000000"/><stop offset="1" stop-color="#000000" stop-opacity="0"/></linearGradient><linearGradient x1="240" y1="177.37501" x2="240" y2="182.62501" gradientUnits="userSpaceOnUse" id="color-3"><stop offset="0" stop-color="#191a18" stop-opacity="0"/><stop offset="1" stop-color="#191a18"/></linearGradient><linearGradient x1="240" y1="177.37501" x2="240" y2="182.62501" gradientUnits="userSpaceOnUse" id="color-4"><stop offset="0" stop-color="#000000"/><stop offset="1" stop-color="#000000" stop-opacity="0"/></linearGradient></defs><g transform="translate(-225.04079,-168.8713)"><g data-paper-data="{&quot;isPaintingLayer&quot;:true}" fill-rule="nonzero" stroke-width="2.5" stroke-linecap="butt" stroke-linejoin="miter" stroke-miterlimit="10" stroke-dasharray="" stroke-dashoffset="0" style="mix-blend-mode: normal"><path d="M230.28572,187.00001c-6.15154,-4.43273 -4.43273,-10.80583 0,-14c4.43273,-3.19417 13.27703,-4.43273 19.42857,0c6.15154,4.43273 4.88449,10.48029 0,14c-4.88449,3.51971 -13.27703,4.43273 -19.42857,0z" fill="url(#color-1)" stroke="url(#color-2)"/><path d="M248.99385,180.00001c0,1.44975 -4.02668,2.625 -8.99385,2.625c-4.96717,0 -8.99385,-1.17525 -8.99385,-2.625c0,-1.44975 4.02668,-2.625 8.99385,-2.625c4.96717,0 8.99385,1.17525 8.99385,2.625z" fill="url(#color-3)" stroke="url(#color-4)"/></g></g></svg>