<svg version="1.1" xmlns="http://www.w3.org/2000/svg" xmlns:xlink="http://www.w3.org/1999/xlink" width="47.21876" height="40.0567" viewBox="0,0,47.21876,40.0567"><g transform="translate(-224.56096,-164.56096)"><g data-paper-data="{&quot;isPaintingLayer&quot;:true}" fill-rule="nonzero" stroke-linejoin="miter" stroke-miterlimit="10" stroke-dasharray="" stroke-dashoffset="0" style="mix-blend-mode: normal"><path d="M225.31096,180c0,-8.11253 6.57651,-14.68904 14.68904,-14.68904c8.11253,0 14.68904,6.57651 14.68904,14.68904c0,8.11253 -6.57651,14.68904 -14.68904,14.68904c-8.11253,0 -14.68904,-6.57651 -14.68904,-14.68904z" fill="#feffa8" stroke="#000000" stroke-width="1.5" stroke-linecap="butt"/><path d="M227.85263,180c0,-6.70881 5.43857,-12.14737 12.14737,-12.14737c6.70881,0 12.14737,5.43857 12.14737,12.14737c0,6.70881 -5.43857,12.14737 -12.14737,12.14737c-6.70881,0 -12.14737,-5.43857 -12.14737,-12.14737z" fill="#bfffa8" stroke="#000000" stroke-width="1.5" stroke-linecap="butt"/><path d="M232.18182,180c0,-4.31786 3.50032,-7.81818 7.81818,-7.81818c4.31786,0 7.81818,3.50032 7.81818,7.81818c0,4.31786 -3.50032,7.81818 -7.81818,7.81818c-4.31786,0 -7.81818,-3.50032 -7.81818,-7.81818z" fill="#dcffa8" stroke="#000000" stroke-width="1.5" stroke-linecap="butt"/><path d="M236.13834,180c0,-2.13274 1.72892,-3.86166 3.86166,-3.86166c2.13274,0 3.86166,1.72892 3.86166,3.86166c0,0.94807 -0.34165,1.81634 -0.90854,2.48841c-0.70837,0.8398 -1.76845,1.37326 -2.95312,1.37326c-2.13274,0 -3.86166,-1.72892 -3.86166,-3.86166z" fill="#ffa8c6" stroke="#000000" stroke-width="1.5" stroke-linecap="butt"/><path d="M243.46429,181.67857l3.21429,-4.42857" fill="none" stroke="#000000" stroke-width="1.5" stroke-linecap="round"/><path d="M254.53572,178.96429l-2.22504,1.48554" fill="none" stroke="#000000" stroke-width="1.5" stroke-linecap="round"/><path d="M251.72689,183.25745l2.03994,0.44146" fill="none" stroke="#000000" stroke-width="1.5" stroke-linecap="round"/><path d="M252.28191,187.22745l-1.18121,-1.72075" fill="none" stroke="#000000" stroke-width="1.5" stroke-linecap="round"/><path d="M248.79346,191.12787l-0.20432,-2.07714" fill="none" stroke="#000000" stroke-width="1.5" stroke-linecap="round"/><path d="M242.34189,192.42844l-0.6345,1.98838" fill="none" stroke="#000000" stroke-width="1.5" stroke-linecap="round"/><path d="M236.51477,192.0933l-1.36917,1.57532" fill="none" stroke="#000000" stroke-width="1.5" stroke-linecap="round"/><path d="M232.07498,189.42931l-1.73958,1.15331" fill="none" stroke="#000000" stroke-width="1.5" stroke-linecap="round"/><path d="M229.74835,186.8275l-2.08631,-0.05974" fill="none" stroke="#000000" stroke-width="1.5" stroke-linecap="round"/><path d="M226.11799,183.59582l2.00774,0.57028" fill="none" stroke="#000000" stroke-width="1.5" stroke-linecap="round"/><path d="M227.59683,179.21489l-1.78328,-1.08451" fill="none" stroke="#000000" stroke-width="1.5" stroke-linecap="round"/><path d="M228.96512,174.09637l-1.43653,-1.51414" fill="none" stroke="#000000" stroke-width="1.5" stroke-linecap="round"/><path d="M231.90774,168.06518l1.11301,1.76563" fill="none" stroke="#000000" stroke-width="1.5" stroke-linecap="round"/><path d="M237.46427,167.98795l-0.17395,-2.0799" fill="none" stroke="#000000" stroke-width="1.5" stroke-linecap="round"/><path d="M243.96002,168.19928l1.00845,-1.71996" fill="none" stroke="#000000" stroke-width="1.5" stroke-linecap="round"/><path d="M251.03237,170.78561l-1.65799,1.15086" fill="none" stroke="#000000" stroke-width="1.5" stroke-linecap="round"/><path d="M240.98512,191.7619l4.83929,-6.55357" fill="none" stroke="#000000" stroke-width="1.5" stroke-linecap="round"/><text transform="translate(242.93968,180.86766) scale(0.5,0.5)" font-size="40" xml:space="preserve" fill="none" fill-rule="nonzero" stroke="none" stroke-width="1" stroke-linecap="butt" stroke-linejoin="miter" stroke-miterlimit="10" stroke-dasharray="" stroke-dashoffset="0" font-family="&quot;Microsoft YaHei&quot;, &quot;微软雅黑&quot;, STXihei, &quot;华文细黑&quot;" font-weight="normal" text-anchor="start" style="mix-blend-mode: normal"><tspan x="0" dy="0"> </tspan></text><path d="M260.99464,183.80192l-9.81106,-13.35557" fill="none" stroke="#000000" stroke-width="1.5" stroke-linecap="round"/><path d="M264.36833,200.89511l-6.32928,-15.42192l6.11621,-2.48031l6.6084,16.19324z" fill="none" stroke="#000000" stroke-width="1.5" stroke-linecap="butt"/><path d="M259.7412,187.32978c0,-1.43092 1.15999,-2.59091 2.59091,-2.59091c1.43092,0 2.59091,1.15999 2.59091,2.59091c0,1.43092 -1.15999,2.59091 -2.59091,2.59091c-1.43092,0 -2.59091,-1.15999 -2.59091,-2.59091z" fill="#629800" stroke="none" stroke-width="0.5" stroke-linecap="butt"/><path d="M261.69575,192.05705c0,-1.43092 1.15999,-2.59091 2.59091,-2.59091c1.43092,0 2.59091,1.15999 2.59091,2.59091c0,1.43092 -1.15999,2.59091 -2.59091,2.59091c-1.43092,0 -2.59091,-1.15999 -2.59091,-2.59091z" fill="#a76100" stroke="none" stroke-width="0.5" stroke-linecap="butt"/><path d="M263.65029,196.87524c0,-1.43092 1.15999,-2.59091 2.59091,-2.59091c1.43092,0 2.59091,1.15999 2.59091,2.59091c0,1.43092 -1.15999,2.59091 -2.59091,2.59091c-1.43092,0 -2.59091,-1.15999 -2.59091,-2.59091z" fill="#d4cdd1" stroke="none" stroke-width="0.5" stroke-linecap="butt"/></g></g></svg>