<svg version="1.1" xmlns="http://www.w3.org/2000/svg" xmlns:xlink="http://www.w3.org/1999/xlink" width="31.125" height="31.8617" viewBox="0,0,31.125,31.8617"><g transform="translate(-224.4375,-164.06915)"><g data-paper-data="{&quot;isPaintingLayer&quot;:true}" fill-rule="nonzero" stroke="none" stroke-width="0" stroke-linecap="butt" stroke-linejoin="miter" stroke-miterlimit="10" stroke-dasharray="" stroke-dashoffset="0" style="mix-blend-mode: normal"><g><g><path d="M255.5625,180c0,8.79836 -6.96757,15.93085 -15.5625,15.93085c-8.59493,0 -15.5625,-7.13249 -15.5625,-15.93085c0,-8.79836 6.96757,-15.93085 15.5625,-15.93085c8.59493,0 15.5625,7.13249 15.5625,15.93085z" fill="#000000"/><path d="M255.13512,180c0,8.55674 -6.77623,15.49335 -15.13512,15.49335c-8.35889,0 -15.13512,-6.93661 -15.13512,-15.49335c0,-8.55674 6.77623,-15.49335 15.13512,-15.49335c8.35889,0 15.13512,6.93661 15.13512,15.49335z" fill="#0a0a0a"/><path d="M254.8909,180c0,8.41867 -6.66689,15.24335 -14.89089,15.24335c-8.22401,0 -14.89089,-6.82468 -14.89089,-15.24335c0,-8.41867 6.66689,-15.24335 14.8909,-15.24335c8.22401,0 14.8909,6.82468 14.8909,15.24335z" fill="#191919"/><path d="M254.60597,180c0,8.25758 -6.53932,14.95168 -14.60597,14.95168c-8.06665,0 -14.60597,-6.6941 -14.60597,-14.95168c0,-8.25758 6.53932,-14.95168 14.60597,-14.95168c8.06665,0 14.60597,6.6941 14.60597,14.95168z" fill="#2d2d2d"/><path d="M253.38487,180c0,7.56723 -5.99262,13.70168 -13.38487,13.70168c-7.39226,0 -13.38487,-6.13446 -13.38487,-13.70168c0,-7.56723 5.99262,-13.70168 13.38487,-13.70168c7.39226,0 13.38487,6.13446 13.38487,13.70168z" fill="#4d4d4d"/><path d="M251.67654,180c0,6.60141 -5.22777,11.95291 -11.67654,11.95291c-6.44877,0 -11.67654,-5.35151 -11.67654,-11.95291c0,-6.6014 5.22777,-11.95291 11.67654,-11.95291c6.44877,0 11.67654,5.35151 11.67654,11.95291z" fill="#6b6b6b"/><path d="M249.15294,180c0,5.17467 -4.09791,9.36957 -9.15294,9.36957c-5.05503,0 -9.15294,-4.19491 -9.15294,-9.36957c0,-5.17467 4.09791,-9.36957 9.15294,-9.36957c5.05503,0 9.15294,4.19491 9.15294,9.36957z" fill="#969696"/><path d="M246.58863,180c0,3.72493 -2.94983,6.74457 -6.58863,6.74457c-3.6388,0 -6.58863,-3.01965 -6.58863,-6.74457c0,-3.72493 2.94983,-6.74457 6.58863,-6.74457c3.6388,0 6.58863,3.01965 6.58863,6.74457z" fill="#c5c5c5"/><path d="M245.0053,180c0,2.82978 -2.24094,5.12376 -5.00529,5.12376c-2.76435,0 -5.00529,-2.29399 -5.00529,-5.12376c0,-2.82978 2.24094,-5.12376 5.00529,-5.12376c2.76435,0 5.00529,2.29399 5.00529,5.12376z" fill="#e1e1e1"/><path d="M243.67196,180c0,2.07596 -1.64399,3.75887 -3.67196,3.75887c-2.02797,0 -3.67196,-1.68291 -3.67196,-3.75887c0,-2.07596 1.64399,-3.75887 3.67196,-3.75887c2.02797,0 3.67196,1.68291 3.67196,3.75887z" fill="#efefef"/><path d="M242.42196,180c0,1.36927 -1.08435,2.47929 -2.42196,2.47929c-1.33761,0 -2.42196,-1.11002 -2.42196,-2.47929c0,-1.36927 1.08435,-2.47929 2.42196,-2.47929c1.33761,0 2.42196,1.11002 2.42196,2.47929z" fill="#ffffff"/></g><g><path d="M241.5674,180c0,0.88614 -0.70175,1.6045 -1.5674,1.6045c-0.86565,0 -1.5674,-0.71836 -1.5674,-1.6045c0,-0.88614 0.70175,-1.6045 1.5674,-1.6045c0.86565,0 1.5674,0.71836 1.5674,1.6045z" fill="#000000"/><path d="M241.52436,180c0,0.86181 -0.68248,1.56044 -1.52436,1.56044c-0.84188,0 -1.52436,-0.69863 -1.52436,-1.56044c0,-0.86181 0.68248,-1.56044 1.52436,-1.56044c0.84188,0 1.52436,0.69863 1.52436,1.56044z" fill="#0a0a0a"/><path d="M241.49976,180c0,0.8479 -0.67147,1.53526 -1.49976,1.53526c-0.82829,0 -1.49976,-0.68736 -1.49976,-1.53526c0,-0.8479 0.67147,-1.53526 1.49976,-1.53526c0.82829,0 1.49976,0.68736 1.49976,1.53526z" fill="#191919"/><path d="M241.47107,180c0,0.83167 -0.65862,1.50588 -1.47107,1.50588c-0.81244,0 -1.47107,-0.67421 -1.47107,-1.50588c0,-0.83167 0.65862,-1.50588 1.47107,-1.50588c0.81244,0 1.47107,0.67421 1.47107,1.50588z" fill="#2d2d2d"/><path d="M241.34808,180c0,0.76215 -0.60356,1.37999 -1.34808,1.37999c-0.74453,0 -1.34808,-0.61784 -1.34808,-1.37999c0,-0.76215 0.60356,-1.37999 1.34808,-1.37999c0.74453,0 1.34808,0.61784 1.34808,1.37999z" fill="#4d4d4d"/><path d="M241.17602,180c0,0.66487 -0.52652,1.20386 -1.17602,1.20386c-0.6495,0 -1.17602,-0.53898 -1.17602,-1.20386c0,-0.66487 0.52652,-1.20386 1.17602,-1.20386c0.6495,0 1.17602,0.53898 1.17602,1.20386z" fill="#6b6b6b"/><path d="M240.92185,180c0,0.52117 -0.41272,0.94367 -0.92185,0.94367c-0.50913,0 -0.92185,-0.42249 -0.92185,-0.94367c0,-0.52117 0.41272,-0.94367 0.92185,-0.94367c0.50913,0 0.92185,0.42249 0.92185,0.94367z" fill="#969696"/><path d="M240.66359,180c0,0.37516 -0.2971,0.67929 -0.66359,0.67929c-0.36649,0 -0.66359,-0.30413 -0.66359,-0.67929c0,-0.37516 0.2971,-0.67929 0.66359,-0.67929c0.36649,0 0.66359,0.30413 0.66359,0.67929z" fill="#c5c5c5"/><path d="M240.50412,180c0,0.28501 -0.2257,0.51605 -0.50412,0.51605c-0.27841,0 -0.50412,-0.23104 -0.50412,-0.51605c0,-0.28501 0.2257,-0.51605 0.50412,-0.51605c0.27841,0 0.50412,0.23104 0.50412,0.51605z" fill="#e1e1e1"/><path d="M240.36983,180c0,0.20908 -0.16557,0.37858 -0.36982,0.37858c-0.20425,0 -0.36982,-0.1695 -0.36982,-0.37858c0,-0.20908 0.16557,-0.37858 0.36982,-0.37858c0.20425,0 0.36982,0.1695 0.36982,0.37858z" fill="#efefef"/><path d="M240.24393,180c0,0.13791 -0.10921,0.24971 -0.24393,0.24971c-0.13472,0 -0.24393,-0.1118 -0.24393,-0.24971c0,-0.13791 0.10921,-0.24971 0.24393,-0.24971c0.13472,0 0.24393,0.1118 0.24393,0.24971z" fill="#ffffff"/></g><g><path d="M240.20381,180c0,0.11523 -0.09124,0.20863 -0.2038,0.20863c-0.11256,0 -0.2038,-0.0934 -0.2038,-0.20863c0,-0.11523 0.09124,-0.20863 0.2038,-0.20863c0.11256,0 0.2038,0.0934 0.2038,0.20863z" fill="#000000"/><path d="M240.19821,180c0,0.11206 -0.08874,0.2029 -0.19821,0.2029c-0.10947,0 -0.19821,-0.09084 -0.19821,-0.2029c0,-0.11206 0.08874,-0.2029 0.19821,-0.2029c0.10947,0 0.19821,0.09084 0.19821,0.2029z" fill="#0a0a0a"/><path d="M240.19501,180c0,0.11025 -0.08731,0.19962 -0.19501,0.19962c-0.1077,0 -0.19501,-0.08937 -0.19501,-0.19962c0,-0.11025 0.08731,-0.19962 0.19501,-0.19962c0.1077,0 0.19501,0.08937 0.19501,0.19962z" fill="#191919"/><path d="M240.19128,180c0,0.10814 -0.08564,0.19581 -0.19128,0.19581c-0.10564,0 -0.19128,-0.08767 -0.19128,-0.19581c0,-0.10814 0.08564,-0.19581 0.19128,-0.19581c0.10564,0 0.19128,0.08767 0.19128,0.19581z" fill="#2d2d2d"/><path d="M240.17529,180c0,0.0991 -0.07848,0.17944 -0.17529,0.17944c-0.09681,0 -0.17529,-0.08034 -0.17529,-0.17944c0,-0.0991 0.07848,-0.17944 0.17529,-0.17944c0.09681,0 0.17529,0.08034 0.17529,0.17944z" fill="#4d4d4d"/><path d="M240.15292,180c0,0.08645 -0.06846,0.15653 -0.15292,0.15653c-0.08445,0 -0.15292,-0.07008 -0.15292,-0.15653c0,-0.08645 0.06846,-0.15653 0.15292,-0.15653c0.08445,0 0.15292,0.07008 0.15292,0.15653z" fill="#6b6b6b"/><path d="M240.11987,180c0,0.06777 -0.05366,0.1227 -0.11987,0.1227c-0.0662,0 -0.11987,-0.05494 -0.11987,-0.1227c0,-0.06777 0.05366,-0.1227 0.11987,-0.1227c0.0662,0 0.11987,0.05494 0.11987,0.1227z" fill="#969696"/><path d="M240.08629,180c0,0.04878 -0.03863,0.08832 -0.08629,0.08832c-0.04765,0 -0.08629,-0.03955 -0.08629,-0.08832c0,-0.04878 0.03863,-0.08832 0.08629,-0.08832c0.04765,0 0.08629,0.03955 0.08629,0.08832z" fill="#c5c5c5"/><path d="M240.06555,180c0,0.03706 -0.02935,0.0671 -0.06555,0.0671c-0.0362,0 -0.06555,-0.03004 -0.06555,-0.0671c0,-0.03706 0.02935,-0.0671 0.06555,-0.0671c0.0362,0 0.06555,0.03004 0.06555,0.0671z" fill="#e1e1e1"/><path d="M240.04809,180c0,0.02719 -0.02152,0.04923 -0.04808,0.04923c-0.02656,0 -0.04808,-0.02204 -0.04808,-0.04923c0,-0.02719 0.02152,-0.04923 0.04808,-0.04923c0.02656,0 0.04808,0.02204 0.04808,0.04923z" fill="#efefef"/><path d="M240.03172,180c0,0.01793 -0.01421,0.03247 -0.03172,0.03247c-0.01752,0 -0.03172,-0.01454 -0.03172,-0.03247c0,-0.01793 0.01421,-0.03247 0.03172,-0.03247c0.01752,0 0.03172,0.01454 0.03172,0.03247z" fill="#ffffff"/></g></g><g><g><path d="M240.02205,180c0,0.01117 -0.00987,0.02021 -0.02205,0.02021c-0.01218,0 -0.02205,-0.00905 -0.02205,-0.02021c0,-0.01117 0.00987,-0.02021 0.02205,-0.02021c0.01218,0 0.02205,0.00905 0.02205,0.02021z" fill="#000000"/><path d="M240.02144,180c0,0.01086 -0.0096,0.01966 -0.02144,0.01966c-0.01184,0 -0.02144,-0.0088 -0.02144,-0.01966c0,-0.01086 0.0096,-0.01966 0.02144,-0.01966c0.01184,0 0.02144,0.0088 0.02144,0.01966z" fill="#0a0a0a"/><path d="M240.0211,180c0,0.01068 -0.00944,0.01934 -0.02109,0.01934c-0.01165,0 -0.02109,-0.00866 -0.02109,-0.01934c0,-0.01068 0.00944,-0.01934 0.02109,-0.01934c0.01165,0 0.02109,0.00866 0.02109,0.01934z" fill="#191919"/><path d="M240.02069,180c0,0.01048 -0.00927,0.01897 -0.02069,0.01897c-0.01143,0 -0.02069,-0.0085 -0.02069,-0.01897c0,-0.01048 0.00927,-0.01897 0.02069,-0.01897c0.01143,0 0.02069,0.0085 0.02069,0.01897z" fill="#2d2d2d"/><path d="M240.01897,180c0,0.0096 -0.00849,0.01739 -0.01896,0.01739c-0.01047,0 -0.01896,-0.00778 -0.01896,-0.01739c0,-0.0096 0.00849,-0.01739 0.01896,-0.01739c0.01047,0 0.01896,0.00778 0.01896,0.01739z" fill="#4d4d4d"/><path d="M240.01654,180c0,0.00838 -0.00741,0.01517 -0.01654,0.01517c-0.00914,0 -0.01654,-0.00679 -0.01654,-0.01517c0,-0.00838 0.00741,-0.01517 0.01654,-0.01517c0.00914,0 0.01654,0.00679 0.01654,0.01517z" fill="#6b6b6b"/><path d="M240.01297,180c0,0.00657 -0.00581,0.01189 -0.01296,0.01189c-0.00716,0 -0.01296,-0.00532 -0.01296,-0.01189c0,-0.00657 0.00581,-0.01189 0.01296,-0.01189c0.00716,0 0.01296,0.00532 0.01296,0.01189z" fill="#969696"/><path d="M240.00934,180c0,0.00473 -0.00418,0.00856 -0.00934,0.00856c-0.00516,0 -0.00934,-0.00383 -0.00934,-0.00856c0,-0.00473 0.00418,-0.00856 0.00934,-0.00856c0.00516,0 0.00934,0.00383 0.00934,0.00856z" fill="#c5c5c5"/><path d="M240.00709,180c0,0.00359 -0.00318,0.0065 -0.00709,0.0065c-0.00392,0 -0.00709,-0.00291 -0.00709,-0.0065c0,-0.00359 0.00318,-0.0065 0.00709,-0.0065c0.00392,0 0.00709,0.00291 0.00709,0.0065z" fill="#e1e1e1"/><path d="M240.00521,180c0,0.00263 -0.00233,0.00477 -0.0052,0.00477c-0.00287,0 -0.0052,-0.00214 -0.0052,-0.00477c0,-0.00263 0.00233,-0.00477 0.0052,-0.00477c0.00287,0 0.0052,0.00214 0.0052,0.00477z" fill="#efefef"/><path d="M240.00343,180c0,0.00174 -0.00154,0.00315 -0.00343,0.00315c-0.00189,0 -0.00343,-0.00141 -0.00343,-0.00315c0,-0.00174 0.00154,-0.00315 0.00343,-0.00315c0.00189,0 0.00343,0.00141 0.00343,0.00315z" fill="#ffffff"/></g><g><path d="M240.00222,180c0,0.00112 -0.00099,0.00204 -0.00222,0.00204c-0.00123,0 -0.00222,-0.00091 -0.00222,-0.00204c0,-0.00112 0.00099,-0.00204 0.00222,-0.00204c0.00123,0 0.00222,0.00091 0.00222,0.00204z" fill="#000000"/><path d="M240.00216,180c0,0.00109 -0.00097,0.00198 -0.00216,0.00198c-0.00119,0 -0.00216,-0.00089 -0.00216,-0.00198c0,-0.00109 0.00097,-0.00198 0.00216,-0.00198c0.00119,0 0.00216,0.00089 0.00216,0.00198z" fill="#0a0a0a"/><path d="M240.00213,180c0,0.00107 -0.00095,0.00195 -0.00212,0.00195c-0.00118,0 -0.00212,-0.00087 -0.00212,-0.00195c0,-0.00107 0.00095,-0.00195 0.00212,-0.00195c0.00118,0 0.00212,0.00087 0.00212,0.00195z" fill="#191919"/><path d="M240.00208,180c0,0.00105 -0.00093,0.00191 -0.00208,0.00191c-0.00115,0 -0.00208,-0.00085 -0.00208,-0.00191c0,-0.00105 0.00093,-0.00191 0.00208,-0.00191c0.00115,0 0.00208,0.00085 0.00208,0.00191z" fill="#2d2d2d"/><path d="M240.00191,180c0,0.00097 -0.00085,0.00175 -0.00191,0.00175c-0.00105,0 -0.00191,-0.00079 -0.00191,-0.00175c0,-0.00097 0.00085,-0.00175 0.00191,-0.00175c0.00105,0 0.00191,0.00079 0.00191,0.00175z" fill="#4d4d4d"/><path d="M240.00167,180c0,0.00084 -0.00074,0.00153 -0.00167,0.00153c-0.00092,0 -0.00167,-0.00068 -0.00167,-0.00153c0,-0.00084 0.00074,-0.00153 0.00167,-0.00153c0.00092,0 0.00167,0.00068 0.00167,0.00153z" fill="#6b6b6b"/><path d="M240.00131,180c0,0.00066 -0.00058,0.0012 -0.00131,0.0012c-0.00072,0 -0.00131,-0.00054 -0.00131,-0.0012c0,-0.00066 0.00058,-0.0012 0.00131,-0.0012c0.00072,0 0.00131,0.00054 0.00131,0.0012z" fill="#969696"/><path d="M240.00094,180c0,0.00048 -0.00042,0.00086 -0.00094,0.00086c-0.00052,0 -0.00094,-0.00039 -0.00094,-0.00086c0,-0.00048 0.00042,-0.00086 0.00094,-0.00086c0.00052,0 0.00094,0.00039 0.00094,0.00086z" fill="#c5c5c5"/><path d="M240.00072,180c0,0.00036 -0.00032,0.00066 -0.00071,0.00066c-0.0004,0 -0.00071,-0.00029 -0.00071,-0.00066c0,-0.00036 0.00032,-0.00066 0.00071,-0.00066c0.0004,0 0.00071,0.00029 0.00071,0.00066z" fill="#e1e1e1"/><path d="M240.00053,180c0,0.00026 -0.00024,0.00048 -0.00052,0.00048c-0.00029,0 -0.00052,-0.00022 -0.00052,-0.00048c0,-0.00026 0.00024,-0.00048 0.00052,-0.00048c0.00029,0 0.00052,0.00022 0.00052,0.00048z" fill="#efefef"/><path d="M240.00035,180c0,0.00018 -0.00015,0.00032 -0.00034,0.00032c-0.00019,0 -0.00034,-0.00014 -0.00034,-0.00032c0,-0.00018 0.00015,-0.00032 0.00034,-0.00032c0.00019,0 0.00034,0.00014 0.00034,0.00032z" fill="#ffffff"/></g><g><path d="M240.00029,180c0,0.00015 -0.00013,0.00026 -0.00029,0.00026c-0.00016,0 -0.00029,-0.00012 -0.00029,-0.00026c0,-0.00015 0.00013,-0.00026 0.00029,-0.00026c0.00016,0 0.00029,0.00012 0.00029,0.00026z" fill="#000000"/><path d="M240.00028,180c0,0.00014 -0.00013,0.00026 -0.00028,0.00026c-0.00016,0 -0.00028,-0.00011 -0.00028,-0.00026c0,-0.00014 0.00013,-0.00026 0.00028,-0.00026c0.00016,0 0.00028,0.00011 0.00028,0.00026z" fill="#0a0a0a"/><path d="M240.00028,180c0,0.00014 -0.00012,0.00025 -0.00028,0.00025c-0.00015,0 -0.00028,-0.00011 -0.00028,-0.00025c0,-0.00014 0.00012,-0.00025 0.00028,-0.00025c0.00015,0 0.00028,0.00011 0.00028,0.00025z" fill="#191919"/><path d="M240.00027,180c0,0.00014 -0.00012,0.00025 -0.00027,0.00025c-0.00015,0 -0.00027,-0.00011 -0.00027,-0.00025c0,-0.00014 0.00012,-0.00025 0.00027,-0.00025c0.00015,0 0.00027,0.00011 0.00027,0.00025z" fill="#2d2d2d"/><path d="M240.00025,180c0,0.00013 -0.00011,0.00023 -0.00025,0.00023c-0.00013,0 -0.00025,-0.0001 -0.00025,-0.00023c0,-0.00013 0.00011,-0.00023 0.00025,-0.00023c0.00013,0 0.00025,0.0001 0.00025,0.00023z" fill="#4d4d4d"/><path d="M240.00022,180c0,0.00011 -0.0001,0.0002 -0.00022,0.0002c-0.00012,0 -0.00022,-0.00009 -0.00022,-0.0002c0,-0.00011 0.0001,-0.0002 0.00022,-0.0002c0.00012,0 0.00022,0.00009 0.00022,0.0002z" fill="#6b6b6b"/><path d="M240.00017,180c0,0.00009 -0.00007,0.00015 -0.00017,0.00015c-0.0001,0 -0.00017,-0.00007 -0.00017,-0.00015c0,-0.00009 0.00007,-0.00015 0.00017,-0.00015c0.0001,0 0.00017,0.00007 0.00017,0.00015z" fill="#969696"/><path d="M240.00013,180c0,0.00006 -0.00006,0.00011 -0.00012,0.00011c-0.00007,0 -0.00012,-0.00005 -0.00012,-0.00011c0,-0.00006 0.00006,-0.00011 0.00012,-0.00011c0.00007,0 0.00012,0.00005 0.00012,0.00011z" fill="#c5c5c5"/><path d="M240.0001,180c0,0.00005 -0.00004,0.00009 -0.00009,0.00009c-0.00005,0 -0.00009,-0.00004 -0.00009,-0.00009c0,-0.00005 0.00004,-0.00009 0.00009,-0.00009c0.00005,0 0.00009,0.00004 0.00009,0.00009z" fill="#e1e1e1"/><path d="M240.00007,180c0,0.00003 -0.00003,0.00006 -0.00007,0.00006c-0.00004,0 -0.00007,-0.00003 -0.00007,-0.00006c0,-0.00003 0.00003,-0.00006 0.00007,-0.00006c0.00004,0 0.00007,0.00003 0.00007,0.00006z" fill="#efefef"/><path d="M240.00005,180c0,0.00002 -0.00002,0.00004 -0.00004,0.00004c-0.00003,0 -0.00004,-0.00002 -0.00004,-0.00004c0,-0.00002 0.00002,-0.00004 0.00004,-0.00004c0.00003,0 0.00004,0.00002 0.00004,0.00004z" fill="#ffffff"/></g></g></g></g></svg>