<svg version="1.1" xmlns="http://www.w3.org/2000/svg" xmlns:xlink="http://www.w3.org/1999/xlink" width="23.92001" height="23.92001" viewBox="0,0,23.92001,23.92001"><g transform="translate(-228.03999,-168.04)"><g data-paper-data="{&quot;isPaintingLayer&quot;:true}" fill-rule="nonzero" stroke="none" stroke-linecap="butt" stroke-linejoin="miter" stroke-miterlimit="10" stroke-dasharray="" stroke-dashoffset="0" style="mix-blend-mode: normal"><path d="" fill="#9966ff" stroke-width="0"/><path d="" fill="#ffad00" stroke-width="0"/><path d="" fill="#ffad00" stroke-width="0"/><path d="" fill="#ffad00" stroke-width="0"/><path d="" fill="#ffad00" stroke-width="0.5"/><path d="" fill="#ffad00" stroke-width="0.5"/><g><g><g><path d="M228.04,189.4375c0,-4.22584 0,-12.79682 0,-18.5c0,-1.40869 1.34279,-2.8975 2.6475,-2.8975c2.81004,0 13.63073,0 18.66666,0c1.59196,0 2.60584,1.538 2.60584,2.98084c0,2.82933 0,12.93428 0,18c0,1.78104 -1.61224,2.93917 -3.10584,2.93917c0,0 -15.27763,0 -18.5,0c-1.13969,0 -2.31417,-1.28079 -2.31417,-2.5225z" fill="#9966ff" stroke-width="0"/><path d="M231.36279,180l8.63721,-8.63721l8.63721,8.63721l-8.63721,8.63721z" fill="#734dbf" stroke-width="0.5"/><path d="M236.89814,183.10186v-6.20372h6.20372v6.20372z" fill="#9966ff" stroke-width="0"/><path d="M238.02638,179.59456c0.47099,-0.47099 1.21932,-1.21932 1.5,-1.5c0.2107,-0.2107 0.73098,-0.21628 0.93863,-0.00863c0.48081,0.48081 1.13565,1.13565 1.54129,1.5413c0.24441,0.24441 0.18901,0.55653 -0.0554,0.80094c-0.26138,0.26138 -0.96764,0.96764 -1.45454,1.45454c-0.28602,0.28602 -0.76758,0.22513 -0.98277,0.00995c-0.26593,-0.26593 -0.94152,-0.94152 -1.40909,-1.40909c-0.27875,-0.27875 -0.3163,-0.65083 -0.07812,-0.88901z" fill="#734dbf" stroke-width="0.5"/></g><g><path d="M229.15518,172.5825c0.73242,-0.71912 2.21793,-2.17769 3.2064,-3.14822c0.24416,-0.23972 0.7307,-0.26035 0.95273,-0.03421c0.47819,0.48703 2.31959,2.36246 3.17657,3.23529c0.27091,0.27591 0.17687,0.71337 -0.07319,0.9589c-0.49038,0.48148 -2.24176,2.20108 -3.11974,3.06313c-0.30869,0.30309 -0.78378,0.22074 -1.03795,-0.03813c0,0 -2.59984,-2.64791 -3.14821,-3.20641c-0.19395,-0.19753 -0.17183,-0.61904 0.04339,-0.83035z" fill="#734dbf" stroke-width="0"/><path d="M231.35633,171.55239l2.96682,0.02716l-0.02717,2.96682l-2.96682,-0.02717z" fill="#9966ff" stroke-width="0.5"/><path d="M231.76069,173.03963l1.07522,-1.05571l1.05571,1.07523l-1.07522,1.05571z" fill="#734dbf" stroke-width="0"/><path d="M232.56057,172.63832c0.16179,0.00148 0.41883,0.00383 0.51524,0.00472c0.07237,0.00066 0.16188,0.08989 0.16123,0.16121c-0.00151,0.16515 -0.00358,0.39009 -0.00485,0.52943c-0.00077,0.08396 -0.06429,0.12747 -0.14825,0.1267c-0.08978,-0.00082 -0.33238,-0.00304 -0.49963,-0.00457c-0.09824,-0.0009 -0.16964,-0.09473 -0.16896,-0.16864c0.00083,-0.09134 0.00296,-0.32341 0.00444,-0.48401c0.00088,-0.09575 0.05897,-0.16558 0.14078,-0.16483z" fill="#9966ff" stroke-width="0.5"/></g><g><path d="M243.79804,172.29679c0.73242,-0.71912 2.21793,-2.17768 3.2064,-3.14821c0.24416,-0.23972 0.7307,-0.26035 0.95273,-0.03422c0.47819,0.48703 2.31959,2.36247 3.17657,3.23529c0.27091,0.27591 0.17687,0.71337 -0.07319,0.9589c-0.49038,0.48148 -2.24175,2.20107 -3.11974,3.06312c-0.30869,0.30309 -0.78378,0.22074 -1.03795,-0.03813c0,0 -2.59984,-2.6479 -3.14821,-3.2064c-0.19395,-0.19753 -0.17183,-0.61904 0.04339,-0.83035z" fill="#734dbf" stroke-width="0"/><path d="M245.99919,171.26668l2.96682,0.02716l-0.02717,2.96682l-2.96682,-0.02717z" fill="#9966ff" stroke-width="0.5"/><path d="M246.40355,172.75391l1.07522,-1.05571l1.05571,1.07522l-1.07522,1.05571z" fill="#734dbf" stroke-width="0"/><path d="M247.20342,172.35261c0.16179,0.00148 0.41883,0.00383 0.51524,0.00471c0.07237,0.00066 0.16188,0.08989 0.16123,0.16122c-0.00151,0.16515 -0.00358,0.39009 -0.00485,0.52942c-0.00077,0.08396 -0.06429,0.12747 -0.14825,0.1267c-0.08978,-0.00082 -0.33237,-0.00304 -0.49962,-0.00457c-0.09824,-0.0009 -0.16964,-0.09473 -0.16897,-0.16864c0.00083,-0.09134 0.00296,-0.32341 0.00444,-0.48401c0.00088,-0.09575 0.05897,-0.16557 0.14078,-0.16482z" fill="#9966ff" stroke-width="0.5"/></g><g><path d="M243.65518,186.79679c0.73242,-0.71912 2.21793,-2.17768 3.2064,-3.14821c0.24416,-0.23972 0.7307,-0.26035 0.95273,-0.03422c0.47819,0.48703 2.31959,2.36247 3.17657,3.23529c0.27091,0.27591 0.17687,0.71337 -0.07319,0.9589c-0.49038,0.48148 -2.24176,2.20107 -3.11974,3.06312c-0.30869,0.30309 -0.78378,0.22074 -1.03795,-0.03813c0,0 -2.59984,-2.6479 -3.14821,-3.2064c-0.19395,-0.19753 -0.17183,-0.61904 0.04339,-0.83035z" fill="#734dbf" stroke-width="0"/><path d="M245.85633,185.76668l2.96682,0.02716l-0.02717,2.96682l-2.96682,-0.02717z" fill="#9966ff" stroke-width="0.5"/><path d="M246.26069,187.25391l1.07522,-1.05571l1.05571,1.07522l-1.07522,1.05571z" fill="#734dbf" stroke-width="0"/><path d="M247.06057,186.85261c0.16179,0.00148 0.41883,0.00383 0.51524,0.00471c0.07237,0.00066 0.16188,0.08989 0.16123,0.16122c-0.00151,0.16515 -0.00358,0.39009 -0.00485,0.52942c-0.00077,0.08396 -0.06429,0.12747 -0.14825,0.1267c-0.08978,-0.00082 -0.33238,-0.00304 -0.49963,-0.00457c-0.09824,-0.0009 -0.16964,-0.09473 -0.16896,-0.16864c0.00083,-0.09134 0.00296,-0.32341 0.00444,-0.48401c0.00088,-0.09575 0.05897,-0.16557 0.14078,-0.16482z" fill="#9966ff" stroke-width="0.5"/></g><g><path d="M229.08375,186.5825c0.73242,-0.71912 2.21793,-2.17769 3.2064,-3.14822c0.24416,-0.23972 0.7307,-0.26035 0.95273,-0.03421c0.47819,0.48703 2.31959,2.36246 3.17657,3.23529c0.27091,0.27591 0.17687,0.71337 -0.07319,0.9589c-0.49038,0.48148 -2.24176,2.20108 -3.11974,3.06313c-0.30869,0.30309 -0.78378,0.22074 -1.03795,-0.03813c0,0 -2.59985,-2.64791 -3.14821,-3.20641c-0.19395,-0.19753 -0.17182,-0.61904 0.04339,-0.83035z" fill="#734dbf" stroke-width="0"/><path d="M231.2849,185.55239l2.96682,0.02716l-0.02717,2.96682l-2.96682,-0.02717z" fill="#9966ff" stroke-width="0.5"/><path d="M231.68926,187.03963l1.07522,-1.05571l1.05571,1.07523l-1.07522,1.05571z" fill="#734dbf" stroke-width="0"/><path d="M232.48914,186.63832c0.16179,0.00148 0.41883,0.00383 0.51524,0.00472c0.07237,0.00066 0.16188,0.08989 0.16123,0.16121c-0.00151,0.16515 -0.00358,0.39009 -0.00485,0.52943c-0.00077,0.08396 -0.06429,0.12747 -0.14825,0.1267c-0.08978,-0.00082 -0.33238,-0.00304 -0.49963,-0.00457c-0.09824,-0.0009 -0.16964,-0.09473 -0.16896,-0.16864c0.00083,-0.09134 0.00296,-0.32341 0.00444,-0.48401c0.00088,-0.09575 0.05897,-0.16558 0.14078,-0.16483z" fill="#9966ff" stroke-width="0.5"/></g></g><g><path d="M239.19552,178.97824c0.36071,0.0004 1.09233,0.0012 1.57914,0.00173c0.12024,0.00013 0.2472,0.11489 0.24708,0.22626c-0.00026,0.23986 -0.00128,1.16351 -0.00175,1.59337c-0.00015,0.13589 -0.13153,0.22229 -0.25469,0.22215c-0.24151,-0.00026 -1.10406,-0.00121 -1.53646,-0.00168c-0.15203,-0.00017 -0.25074,-0.13789 -0.2506,-0.26539c0,0 0.00143,-1.30408 0.00173,-1.57914c0.00011,-0.09728 0.10954,-0.19741 0.21553,-0.1973z" fill="#9966ff" stroke-width="0"/><path d="M240.00079,179.26276l0.73646,0.73807l-0.73807,0.73645l-0.73645,-0.73807z" fill="#734dbf" stroke-width="0.5"/><path d="M239.7355,179.73496l0.52954,0.00058l-0.00058,0.52954l-0.52954,-0.00058z" fill="#9966ff" stroke-width="0"/><path d="M240.03477,179.83159c0.04016,0.04025 0.10397,0.10419 0.1279,0.12818c0.01797,0.01801 0.01839,0.06242 0.00065,0.08012c-0.04108,0.041 -0.09705,0.09683 -0.13171,0.13142c-0.02089,0.02084 -0.04752,0.01608 -0.06836,-0.0048c-0.02229,-0.02233 -0.08251,-0.08269 -0.12402,-0.12429c-0.02439,-0.02444 -0.01914,-0.06554 -0.00076,-0.08389c0.02272,-0.02267 0.08046,-0.08028 0.12041,-0.12015c0.02382,-0.02377 0.05558,-0.02694 0.07589,-0.00659z" fill="#734dbf" stroke-width="0.5"/></g></g></g></g></svg>