<svg version="1.1" xmlns="http://www.w3.org/2000/svg" xmlns:xlink="http://www.w3.org/1999/xlink" width="30.87808" height="40.12047" viewBox="0,0,30.87808,40.12047"><g transform="translate(-224.56096,-164.49719)"><g data-paper-data="{&quot;isPaintingLayer&quot;:true}" fill-rule="nonzero" stroke-linejoin="miter" stroke-miterlimit="10" stroke-dasharray="" stroke-dashoffset="0" style="mix-blend-mode: normal"><path d="M225.31096,180c0,-0.60397 0.03645,-1.19943 0.10728,-1.7843c1.83425,2.15629 4.56749,3.52419 7.62023,3.52419c5.52285,0 10,-4.47715 10,-10c0,-2.44008 -0.87395,-4.67605 -2.3259,-6.41195c3.28219,0.15677 6.28209,1.39077 8.65392,3.35621c-0.48715,0.7458 -0.77032,1.63693 -0.77032,2.5942c0,2.62335 2.12665,4.75 4.75,4.75c0.26621,0 0.5273,-0.0219 0.78157,-0.06399c0.36559,1.28224 0.56132,2.63609 0.56132,4.03564c0,0.25527 -0.00651,0.50902 -0.01938,0.76109c-2.55952,0.07304 -4.61197,2.17085 -4.61197,4.74803c0,1.38693 0.59441,2.63502 1.54239,3.50342c-2.68766,3.45432 -6.88436,5.6765 -11.60008,5.6765c-8.11253,0 -14.68904,-6.57651 -14.68904,-14.68904z" fill="#ffa8d0" stroke="#000000" stroke-width="1.5" stroke-linecap="butt"/><path d="M252.14737,180c0,0.56003 -0.0379,1.11121 -0.11127,1.65112c-1.19821,0.86231 -1.97841,2.26904 -1.97841,3.858c0,0.38189 0.04507,0.75326 0.13017,1.10907c-2.16666,3.32847 -5.92026,5.52918 -10.18787,5.52918c-6.61054,0 -11.98776,-5.2804 -12.14388,-11.85338c1.51131,0.91756 3.28513,1.4459 5.18234,1.4459c5.52285,0 10,-4.47715 10,-10c0,-1.29211 -0.24506,-2.52698 -0.69124,-3.66067c2.41726,0.47324 4.57774,1.6634 6.25098,3.34002c0.05351,1.83685 1.14984,3.41217 2.71754,4.15452c0.53689,1.37152 0.83162,2.86446 0.83162,4.42624z" fill="#b0a8ff" stroke="#000000" stroke-width="1.5" stroke-linecap="butt"/><path d="M248.79346,191.12787l-0.20432,-2.07714" fill="none" stroke="#000000" stroke-width="1.5" stroke-linecap="round"/><path d="M236.51477,192.0933l-1.36917,1.57532" fill="none" stroke="#000000" stroke-width="1.5" stroke-linecap="round"/><path d="M229.74835,186.8275l-2.08631,-0.05974" fill="none" stroke="#000000" stroke-width="1.5" stroke-linecap="round"/><text transform="translate(242.93968,180.86766) scale(0.5,0.5)" font-size="40" xml:space="preserve" fill="none" fill-rule="nonzero" stroke="none" stroke-width="1" stroke-linecap="butt" stroke-linejoin="miter" stroke-miterlimit="10" stroke-dasharray="" stroke-dashoffset="0" font-family="&quot;Microsoft YaHei&quot;, &quot;微软雅黑&quot;, STXihei, &quot;华文细黑&quot;" font-weight="normal" text-anchor="start" style="mix-blend-mode: normal"><tspan x="0" dy="0"> </tspan></text></g></g></svg>