<svg version="1.1" xmlns="http://www.w3.org/2000/svg" xmlns:xlink="http://www.w3.org/1999/xlink" width="85.99203" height="145.2" viewBox="0,0,85.99203,145.2"><g transform="translate(-197.00398,-107.4)"><g data-paper-data="{&quot;isPaintingLayer&quot;:true}" fill-rule="nonzero" stroke="none" stroke-linecap="butt" stroke-linejoin="miter" stroke-miterlimit="10" stroke-dasharray="" stroke-dashoffset="0" style="mix-blend-mode: normal"><path d="M282.99602,236.68c0,-8.7923 -13.16195,-15.92 -29.39773,-15.92c-16.23578,0 -29.39773,7.1277 -29.39773,15.92c0,8.7923 13.16195,15.92 29.39773,15.92c16.23578,0 29.39773,-7.1277 29.39773,-15.92z" fill="#ff669a" stroke-width="0.5"/><path d="M255.79944,123.32c0,-8.7923 -13.16195,-15.92 -29.39773,-15.92c-16.23578,0 -29.39773,7.1277 -29.39773,15.92c0,8.7923 13.16195,15.92 29.39773,15.92c16.23578,0 29.39773,-7.1277 29.39773,-15.92z" fill="#ffe466" stroke-width="0.5"/><text transform="translate(220.25,129.75) scale(0.5,0.5)" font-size="40" xml:space="preserve" fill="#000000" fill-rule="nonzero" stroke="none" stroke-width="1" stroke-linecap="butt" stroke-linejoin="miter" stroke-miterlimit="10" stroke-dasharray="" stroke-dashoffset="0" font-family="&quot;Microsoft YaHei&quot;, &quot;微软雅黑&quot;, STXihei, &quot;华文细黑&quot;" font-weight="normal" text-anchor="start" style="mix-blend-mode: normal"><tspan x="0" dy="0">1</tspan></text><text transform="translate(246.75,244.25) scale(0.5,0.5)" font-size="40" xml:space="preserve" fill="#000000" fill-rule="nonzero" stroke="none" stroke-width="1" stroke-linecap="butt" stroke-linejoin="miter" stroke-miterlimit="10" stroke-dasharray="" stroke-dashoffset="0" font-family="&quot;Microsoft YaHei&quot;, &quot;微软雅黑&quot;, STXihei, &quot;华文细黑&quot;" font-weight="normal" text-anchor="start" style="mix-blend-mode: normal"><tspan x="0" dy="0">2</tspan></text></g></g></svg>