<svg version="1.1" xmlns="http://www.w3.org/2000/svg" xmlns:xlink="http://www.w3.org/1999/xlink" width="21.00008" height="21.46425" viewBox="0,0,21.00008,21.46425"><g transform="translate(-229.49996,-169.26788)"><g data-paper-data="{&quot;isPaintingLayer&quot;:true}" fill="none" fill-rule="nonzero" stroke-width="4" stroke-linejoin="miter" stroke-miterlimit="10" stroke-dasharray="" stroke-dashoffset="0" style="mix-blend-mode: normal"><g><path d="M245.20199,180.10456c0,2.88526 -2.33897,5.22423 -5.22423,5.22423c-2.88526,0 -5.22423,-2.33897 -5.22423,-5.22423c0,-2.88526 2.33897,-5.22423 5.22423,-5.22423c2.88526,0 5.22423,2.33897 5.22423,5.22423z" stroke="#0090ff" stroke-linecap="butt"/><g stroke-linecap="round"><g><path d="M242.75942,174.08868l0.83037,-2.10811" stroke="#0090ff"/><path d="M246.20296,176.78311l2.02278,-1.02078" stroke="#0090ff"/></g><g stroke="#0090ff"><path d="M246.31243,181.64677l2.18761,0.5899"/><path d="M244.01917,185.36952l1.24016,1.89621"/></g></g><g stroke="#0090ff" stroke-linecap="round"><path d="M239.06763,186.43612l-0.22313,2.296"/><path d="M234.94284,184.76181l-1.6946,1.56516"/></g><path d="M233.79116,179.79375l-2.2912,0.26797" stroke="#0090ff" stroke-linecap="round"/><path d="M234.96153,175.54472l-1.88842,-1.32487" stroke="#0090ff" stroke-linecap="round"/><path d="M238.34113,171.26788l0.34242,2.28126" stroke="#0090ff" stroke-linecap="round"/></g></g></g></svg>