<svg version="1.1" xmlns="http://www.w3.org/2000/svg" xmlns:xlink="http://www.w3.org/1999/xlink" width="50" height="50" viewBox="0,0,50,50"><defs><radialGradient cx="240" cy="180" r="25" gradientUnits="userSpaceOnUse" id="color-1"><stop offset="0" stop-color="#8e393a"/><stop offset="1" stop-color="#ff6666"/></radialGradient><radialGradient cx="240" cy="180" r="12.5" gradientUnits="userSpaceOnUse" id="color-2"><stop offset="0" stop-color="#b67b4b"/><stop offset="1" stop-color="#ffac66"/></radialGradient><radialGradient cx="240" cy="180" r="6.25" gradientUnits="userSpaceOnUse" id="color-3"><stop offset="0" stop-color="#a8aa46"/><stop offset="1" stop-color="#f9ff66"/></radialGradient><radialGradient cx="240" cy="180" r="3.125" gradientUnits="userSpaceOnUse" id="color-4"><stop offset="0" stop-color="#577a32"/><stop offset="1" stop-color="#afff66"/></radialGradient><radialGradient cx="240" cy="180" r="1.53125" gradientUnits="userSpaceOnUse" id="color-5"><stop offset="0" stop-color="#294e57"/><stop offset="1" stop-color="#66fbff"/></radialGradient><radialGradient cx="240" cy="180" r="0.76531" gradientUnits="userSpaceOnUse" id="color-6"><stop offset="0" stop-color="#404473"/><stop offset="1" stop-color="#af66ff"/></radialGradient></defs><g transform="translate(-215,-155)"><g data-paper-data="{&quot;isPaintingLayer&quot;:true}" fill-rule="nonzero" stroke="none" stroke-width="0.5" stroke-linecap="butt" stroke-linejoin="miter" stroke-miterlimit="10" stroke-dasharray="" stroke-dashoffset="0" style="mix-blend-mode: normal"><path d="M215,180c0,-13.80712 11.19288,-25 25,-25c13.80712,0 25,11.19288 25,25c0,13.80712 -11.19288,25 -25,25c-13.80712,0 -25,-11.19288 -25,-25z" fill="url(#color-1)"/><path d="M227.5,180c0,-6.90356 5.59644,-12.5 12.5,-12.5c6.90356,0 12.5,5.59644 12.5,12.5c0,6.90356 -5.59644,12.5 -12.5,12.5c-6.90356,0 -12.5,-5.59644 -12.5,-12.5z" fill="url(#color-2)"/><path d="M233.75,180c0,-3.45178 2.79822,-6.25 6.25,-6.25c3.45178,0 6.25,2.79822 6.25,6.25c0,3.45178 -2.79822,6.25 -6.25,6.25c-3.45178,0 -6.25,-2.79822 -6.25,-6.25z" fill="url(#color-3)"/><path d="M236.875,180c0,-1.72589 1.39911,-3.125 3.125,-3.125c1.72589,0 3.125,1.39911 3.125,3.125c0,1.72589 -1.39911,3.125 -3.125,3.125c-1.72589,0 -3.125,-1.39911 -3.125,-3.125z" fill="url(#color-4)"/><path d="M238.46875,180c0,-0.84569 0.68556,-1.53125 1.53125,-1.53125c0.84569,0 1.53125,0.68556 1.53125,1.53125c0,0.84569 -0.68556,1.53125 -1.53125,1.53125c-0.84569,0 -1.53125,-0.68556 -1.53125,-1.53125z" fill="url(#color-5)"/><path d="M239.23469,180c0,-0.42267 0.34264,-0.76531 0.76531,-0.76531c0.42267,0 0.76531,0.34264 0.76531,0.76531c0,0.42267 -0.34264,0.76531 -0.76531,0.76531c-0.42267,0 -0.76531,-0.34264 -0.76531,-0.76531z" fill="url(#color-6)"/></g></g></svg>